<svg xmlns="http://www.w3.org/2000/svg" xmlns:xlink="http://www.w3.org/1999/xlink" viewBox="0 0 50 50" version="1.1" width="50" height="50">
<g id="surface1">
<path style=" " d="M 25 0 C 11.203125 0 0 11.203125 0 25 C 0 38.796875 11.203125 50 25 50 C 38.796875 50 50 38.796875 50 25 C 50 11.203125 38.796875 0 25 0 Z M 25 2 C 37.714844 2 48 12.285156 48 25 C 48 37.714844 37.714844 48 25 48 C 12.285156 48 2 37.714844 2 25 C 2 12.285156 12.285156 2 25 2 Z M 25.28125 12.5 C 21.550781 12.5 19.070313 14.777344 18.53125 18.21875 C 18.496094 18.433594 18.628906 18.558594 18.84375 18.59375 L 21.09375 19 C 21.308594 19.035156 21.464844 18.933594 21.5 18.71875 C 21.929688 16.53125 23.210938 15.3125 25.21875 15.3125 C 27.265625 15.3125 28.6875 16.613281 28.6875 18.65625 C 28.6875 19.875 28.253906 20.683594 27 22.40625 L 24.59375 25.71875 C 23.839844 26.757813 23.53125 27.5 23.53125 28.9375 L 23.53125 30.40625 C 23.53125 30.621094 23.691406 30.753906 23.90625 30.75 L 26.25 30.75 C 26.464844 30.75 26.625 30.621094 26.625 30.40625 L 26.625 29.25 C 26.625 28.03125 26.84375 27.53125 27.5625 26.5625 L 29.9375 23.28125 C 31.15625 21.59375 31.78125 20.316406 31.78125 18.59375 C 31.78125 15.042969 29.152344 12.5 25.28125 12.5 Z M 23.71875 33.5 C 23.503906 33.5 23.34375 33.628906 23.34375 33.84375 L 23.34375 36.9375 C 23.34375 37.152344 23.5 37.28125 23.71875 37.28125 L 26.4375 37.28125 C 26.652344 37.28125 26.8125 37.152344 26.8125 36.9375 L 26.8125 33.84375 C 26.8125 33.628906 26.652344 33.5 26.4375 33.5 Z "/>
</g>
</svg>