<?xml version="1.0" encoding="utf-8"?>
<!-- Generator: Adobe Illustrator 21.1.0, SVG Export Plug-In . SVG Version: 6.00 Build 0)  -->
<svg version="1.1" id="Layer_1" xmlns="http://www.w3.org/2000/svg" xmlns:xlink="http://www.w3.org/1999/xlink" x="0px" y="0px"
	 viewBox="0 0 413 441" style="enable-background:new 0 0 413 441;" xml:space="preserve">
<style type="text/css">
	.st0{stroke:#F9F9F9;stroke-width:2;stroke-miterlimit:10;}
	.st1{stroke:#000000;stroke-miterlimit:10;}
	.st2{fill:#F3F3F3;stroke:#FFFFFF;stroke-width:3;stroke-miterlimit:10;}
	.st3{fill:#38A3F4;}
	.st4{fill:#F3F3F3;}
</style>
<g>
	<g>
		<g id="surface1_2_">
			<path class="st0" d="M60.3,30.9c-4.1,0-7.5,3.4-7.5,7.5v142.4h-45c-4.1,0-7.5,3.4-7.5,7.5v149.9c0,4.1,3.4,7.5,7.5,7.5h119.9
				c4.1,0,7.5-3.4,7.5-7.5v-15h149.9c4.1,0,7.5-3.4,7.5-7.5V38.4c0-4.1-3.4-7.5-7.5-7.5C285.1,30.9,60.3,30.9,60.3,30.9z M97.8,90.8
				h112.4v15H97.8V90.8z M225.2,90.8h22.5v15h-22.5V90.8z M97.8,120.8h97.4v15H97.8V120.8z M225.2,120.8h22.5v15h-22.5V120.8z
				 M97.8,150.8h112.4v15H97.8V150.8z M225.2,150.8h22.5v15h-22.5V150.8z M150.2,180.7h59.9v15h-59.9L150.2,180.7L150.2,180.7z
				 M225.2,180.7h22.5v15h-22.5V180.7z M15.4,195.7h104.9v134.9H15.4V195.7z M30.4,210.7v15h74.9v-15H30.4z M150.2,210.7h45v15h-45
				V210.7z M225.2,210.7h22.5v15h-22.5V210.7z M30.4,240.7v15h15v-15H30.4z M60.3,240.7v15h15v-15H60.3z M90.3,240.7v15h15v-15H90.3
				z M150.2,240.7h59.9v15h-59.9L150.2,240.7L150.2,240.7z M225.2,240.7h22.5v15h-22.5V240.7z M30.4,270.7v15h15v-15H30.4z
				 M60.3,270.7v15h15v-15H60.3z M90.3,270.7v15h15v-15H90.3z M30.4,300.6v15h15v-15H30.4z M60.3,300.6v15h15v-15H60.3z M90.3,300.6
				v15h15v-15H90.3z"/>
		</g>
	</g>
	<g>
		<path class="st1" d="M401.1,326.6c-2.2-1.2-3.2-1.4-4.4-1.7c-0.6-14.1-4.5-29.9-13.9-43.4c-8.9-12.6-23.1-22.5-41.6-24.8
			c-0.7-8.5-7.5-15.7-16.6-15.7h-13.4c-9.1,0-15.9,7.2-16.6,15.7c-18.6,2.3-33,12.3-41.8,25c-9.3,13.5-13.1,29-13.6,43.1
			c-1.2,0.3-2.2,0.5-4.4,1.7c-3.2,1.8-6.8,5.3-8.9,10c-2.1,4.7-3,10.7-3,18.8v5.9l5.9,1.4c0,0,5.5,1.1,13.4,2.4l16.3,2.4
			c14.9,1.8,34.7,3.1,59.4,3.1c25,0,45-1.4,59.9-3.1l17.1-2.6c7.1-1.2,12.1-2.1,12.1-2.1l5.9-1.4v-5.9c0-8.2-0.9-14-2.9-18.8
			C408,331.9,404.4,328.4,401.1,326.6z M394.8,354.4h-0.9c-0.5,0-1,0.1-1.6,0.3c-0.3,0-0.6,0.2-0.9,0.3c-0.3,0-0.5,0.3-0.8,0.3
			c-13.8,2.2-37,4.6-72.6,4.6c-33.9,0-56-2.2-70.1-4.3c-0.1,0-0.2-0.3-0.3-0.3c-2.2-1.4-4.8-1.8-7.3-1.1c-0.1,0-0.2,0.1-0.3,0
			c-2.8-0.4-5.7-1-7.3-1.3c0.3-2.5,0.5-6.4,1-7.6c1-2.3,1.5-2.5,2.2-2.9c0.8-0.4,1.9-0.6,4.6-1.6c1.4-0.5,3.5-1.4,5.4-3.5
			c1.9-2.2,2.9-5.5,2.9-8.1c0-13.6,4.2-30.5,12.7-43.2c7-10.4,17.1-16.9,30.5-19.4v41.5c0,3.1,1.6,6,4.3,7.6c2.7,1.6,6,1.6,8.7,0
			s4.3-4.5,4.2-7.6v-50.7c0.3-1.1,0.3-2.2,0-3.3v-4.6c0-1.4,1.2-1.9,1.4-1.9h14.6c0.1,0,1.3,0.5,1.3,1.9v4.8c-0.2,1.1-0.2,2.2,0,3.3
			V308c0,3.1,1.6,6,4.3,7.6c2.7,1.6,6,1.6,8.7,0s4.3-4.5,4.2-7.6v-41.3c13.2,2.5,23.6,8.8,30.5,19.2c8.6,12.7,12.7,29.6,12.7,43.2
			c0,2.6,1,6,3,8.1s4,3,5.4,3.5c2.8,1,3.9,1,4.6,1.4s1.2,0.6,2.2,2.9c0.5,1.3,0.7,5.2,1.1,7.9C401.5,353.2,398.3,353.7,394.8,354.4z
			"/>
		<path class="st2" d="M400.1,344c-0.7-0.4-1.8-0.4-4.6-1.4c-1.4-0.4-3.4-1.4-5.4-3.5c-2-2.2-3-5.5-3-8.1c0-13.6-4.1-30.5-12.7-43.2
			c-6.9-10.4-17.3-16.7-30.5-19.2V310c0.1,3.1-1.6,6-4.2,7.6c-2.8,1.6-6,1.6-8.7,0s-4.3-4.5-4.3-7.6v-50.4c-0.2-1.1-0.2-2.2,0-3.3
			v-4.8c0-1.4-1.2-1.9-1.3-1.9h-14.6c-0.2,0-1.4,0.5-1.4,1.9v4.6c0.3,1.1,0.3,2.2,0,3.3V310c0.1,3.1-1.6,6-4.2,7.6
			c-2.8,1.6-6,1.6-8.7,0s-4.3-4.5-4.3-7.6v-41.5c-13.4,2.5-23.5,9-30.5,19.4c-8.5,12.7-12.7,29.6-12.7,43.2c0,2.6-1,6-2.9,8.1
			c-2,2.1-4.1,2.9-5.4,3.5c-2.7,1-3.8,1.2-4.6,1.6c-0.7,0.4-1.1,0.6-2.2,2.9c-0.5,1.2-0.7,5.1-1,7.6c1.6,0.3,4.5,0.9,7.3,1.3
			c0.1,0.1,0.2,0,0.3,0c2.5-0.7,5.2-0.3,7.3,1.1c0.1,0,0.2,0.3,0.3,0.3c14.1,2.1,36.3,4.3,70.1,4.3c35.7,0,58.8-2.4,72.6-4.6
			c0.3,0,0.5-0.3,0.8-0.3c0.3-0.1,0.5-0.3,0.9-0.3c0.5-0.2,1-0.3,1.6-0.3h0.9c3.5-0.7,6.7-1.2,8.6-1.6c-0.4-2.7-0.6-6.6-1.1-7.9
			C401.3,344.7,400.8,344.5,400.1,344z"/>
	</g>
	<g>
		<g>
			<g>
				<path class="st3" d="M147.2,266.5c-0.1,0.5-1,6.7-1,7.2c-0.1,2.5,0.5,5,1,6.6c10.4,2.2,46.4,15.3,57.4,19.4
					c-0.4-4.6-0.8-7.7,0.8-12.1C191.2,280.5,165.8,271.3,147.2,266.5z"/>
				<path class="st3" d="M144.5,265.8c0.9,0.2,1.7,0.5,2.6,0.7C146.2,266.2,145.3,266,144.5,265.8z"/>
				<path class="st3" d="M210.4,284c11.6,5.8,18,9.7,19.8,10.8c2.9-3.7,6.7-7.1,11.3-10c5.7-3.6,11.9-6.6,17.1-8.2
					c0.9-0.3,1.7-0.5,2.6-0.7c-8.2-2.6-18.1-6-28.7-9.9C222.1,270.1,214.5,276.7,210.4,284z"/>
				<path class="st3" d="M228.6,264.9c-15.8-5.8-49.1-21.3-58.9-26.9c-2.9-0.2-5.8,0-9,1c-11.3,3.5-19.2,11-22.8,19
					c15.9,2.5,54,15.4,70.1,23.9C211.8,275.2,220.6,269.4,228.6,264.9z"/>
				<path class="st3" d="M283.5,282.6v0.1c0,0-3.8-1.2-5.9-1.8c-5.1-0.8-10.8-0.4-17,1.5c-4.4,1.3-10.2,4.1-15.4,7.4
					s-9.6,7.3-11.2,10.3c-0.1,0.1-0.1,0.2-0.2,0.3c-1,1.4-3.1,1.9-4.6,0.9c0,0-8.4-5.1-21.1-11.5c-1.2,4-1.3,8.1-0.4,12.1
					c13.6,6.3,25.5,12.6,34,17.3c-1.3-6,0.3-11.7,3.6-16.1c3.7-4.9,9.4-8.4,15.4-10.2c6.9-2.1,12.9-2.2,17.7-0.7
					c4.8,1.5,8.3,4.7,9.6,8.6c1.3,4,0.5,8.2-1.5,11.7s-5.3,6.5-9.5,7.8c-0.8,0.3-1.7,0.2-2.5-0.2l-7.9-3.7l0,0l-10.8-5.1
					c1-1.8,2.7-3.5,4.8-4.8l9.7,4.6l5.4,2.5c1.8-0.8,3.7-2.1,4.8-4.1c1.3-2.3,1.7-4.9,1-6.9s-2.4-3.7-5.5-4.7s-7.6-1.1-13.5,0.7
					c-4.8,1.5-9.3,4.3-12,7.9s-3.8,7.7-2.1,12.8c1.6,4.7,6.3,8.3,12.8,10.1c6.5,1.8,14.5,1.6,21.6-1.2c13.1-5,18.8-18.2,14.3-31.1
					C294.8,290.4,289.9,285.3,283.5,282.6z"/>
			</g>
			<g>
				<path class="st4" d="M152.6,267.7c-0.1,0.5-0.9,6.3-0.9,6.8c-0.1,2.3,0.5,4.7,1,6.2c9.7,2.1,43.5,14.3,53.8,18.2
					c-0.4-4.3-0.7-7.2,0.7-11.3C193.9,280.9,170.1,272.3,152.6,267.7z"/>
				<path class="st4" d="M150.1,267.1c0.8,0.2,1.6,0.4,2.4,0.6C151.7,267.5,150.9,267.3,150.1,267.1z"/>
				<path class="st4" d="M211.9,284.2c10.9,5.5,16.9,9.1,18.6,10.1c2.7-3.5,6.3-6.7,10.6-9.4c5.3-3.4,11.2-6.2,16.1-7.7
					c0.8-0.2,1.6-0.4,2.4-0.6c-7.7-2.5-16.9-5.7-26.9-9.3C222.9,271.2,215.8,277.3,211.9,284.2z"/>
				<path class="st4" d="M229.1,266.3c-14.8-5.5-46.1-20-55.2-25.3c-2.7-0.2-5.4,0-8.4,0.9c-10.6,3.3-18,10.4-21.4,17.8
					c14.9,2.4,50.7,14.4,65.8,22.5C213.3,275.9,221.6,270.5,229.1,266.3z"/>
				<path class="st4" d="M280.6,282.9v0.1c0,0-3.6-1.1-5.6-1.6c-4.8-0.8-10.2-0.4-16,1.4c-4.1,1.3-9.6,3.8-14.5,6.9
					c-4.8,3.1-9,6.8-10.6,9.7c-0.1,0.1-0.1,0.2-0.2,0.3c-1,1.4-2.9,1.7-4.4,0.9c0,0-7.9-4.8-19.8-10.8c-1.1,3.8-1.2,7.6-0.4,11.4
					c12.8,5.9,24,11.8,31.9,16.2c-1.3-5.7,0.3-11,3.4-15.1c3.5-4.6,8.8-7.9,14.5-9.6c6.5-2,12.1-2.1,16.6-0.7s7.8,4.4,9,8.1
					c1.3,3.7,0.5,7.7-1.4,11s-5,6.1-8.9,7.3c-0.8,0.2-1.6,0.2-2.4-0.1l-7.4-3.4l0,0l-10.1-4.8c0.9-1.7,2.5-3.2,4.5-4.5l9.1,4.3
					l5.1,2.4c1.7-0.8,3.5-2,4.5-3.8c1.2-2.1,1.6-4.6,0.9-6.4c-0.6-1.9-2.2-3.5-5.1-4.4s-7.2-1-12.6,0.7c-4.5,1.4-8.7,4.1-11.3,7.4
					c-2.5,3.3-3.6,7.2-2,12c1.5,4.4,5.9,7.8,12,9.5c6.1,1.7,13.6,1.5,20.3-1.1c12.3-4.7,17.6-17.1,13.4-29.2
					C291.2,290.2,286.6,285.4,280.6,282.9z"/>
			</g>
			<g>
				<path class="st1" d="M139.5,260.9c-0.5,0.8-0.5,1.6-0.2,2.4c0.4,1,1.3,1.7,2.5,1.8c15.8,2.2,50.7,14,68,22.8
					c-1.5,4.1-1.1,7-0.7,11.3c-10.3-3.9-44.1-16.2-53.8-18.2c-0.5-1.5-1.1-3.9-1-6.2c0-0.5,0.8-6.3,0.9-6.8c-2-0.4-4.1-1.2-6.2-1.5
					c-0.2,1.1-1,7.7-1,8.3c-0.2,4.8,1.8,9.6,1.9,9.9c0.4,0.9,1.2,1.5,2.2,1.7c11,2.2,23.1,6.2,35.1,10.9v0.1h0.1
					c33,13.1,64.2,31.6,64.6,31.8h0.1c2.5,1.6,5.3,2.9,8.3,3.7c7.5,2.1,16.3,1.8,24.5-1.3c15.4-5.9,22.2-21.9,17.1-36.4
					c-2.9-8.3-9.1-14.3-17.1-17.3v-0.1c0,0-19.4-5.5-43.3-14.1c0,0-16.9-6.3-22.5-8.5l-5.7-2.4c-12.2-5.2-24.3-10.9-34.6-16.9
					c-0.4-0.2-0.8-0.4-1.3-0.4c-3.7-0.4-7.6,0-11.4,1.2C152.3,240.9,142.9,250.7,139.5,260.9z M277.5,281.7c1.9,0.6,5.6,1.6,5.6,1.6
					v-0.1c6.1,2.5,10.6,7.3,12.9,13.9c4.2,12-1.1,24.5-13.4,29.2c-6.7,2.6-14.2,2.8-20.3,1.1c-6.1-1.7-10.5-5.1-12-9.5
					c-1.6-4.8-0.6-8.6,2-12c2.5-3.3,6.8-6,11.3-7.4c5.5-1.7,9.7-1.6,12.6-0.7s4.5,2.5,5.1,4.4s0.3,4.3-0.9,6.4
					c-1.1,1.8-2.8,3.1-4.5,3.8l-5.1-2.4l-9.1-4.3c-2,1.2-3.5,2.8-4.5,4.5l10.1,4.8l0,0l7.4,3.4c0.7,0.3,1.6,0.4,2.4,0.1
					c3.9-1.2,7-4,8.9-7.3s2.7-7.2,1.4-11c-1.3-3.7-4.5-6.7-9-8.1s-10.1-1.3-16.6,0.7c-5.7,1.7-11,5-14.5,9.6
					c-3.1,4.1-4.7,9.4-3.4,15.1c-7.9-4.3-19.1-10.2-31.9-16.2c-0.9-3.8-0.7-7.6,0.4-11.4c11.9,6.1,19.8,10.8,19.8,10.8
					c1.4,0.9,3.4,0.5,4.4-0.9c0.1-0.1,0.1-0.2,0.2-0.3c1.6-2.9,5.7-6.6,10.6-9.7c4.8-3.1,10.4-5.7,14.5-6.9
					C267.3,281.4,272.7,281,277.5,281.7z M262.1,277c-0.8,0.2-1.6,0.4-2.4,0.6c-4.9,1.5-10.7,4.3-16.1,7.7
					c-4.3,2.7-7.9,5.9-10.6,9.4c-1.6-1-7.7-4.6-18.6-10.1c3.8-6.9,11-13.1,20.7-16.9C245.1,271.3,254.4,274.5,262.1,277z
					 M176.3,241.3c9.2,5.3,40.4,19.8,55.2,25.3c-7.5,4.2-15.8,9.6-19.3,15.9c-15.1-8-50.9-20.1-65.8-22.5
					c3.4-7.4,10.8-14.5,21.4-17.8C170.9,241.3,173.6,241.1,176.3,241.3z"/>
			</g>
		</g>
		<g>
			<g>
				<path class="st3" d="M90.2,259.2c-0.3,0.8-4.2,11-4.3,11.8c-1,3.8-1,7.9-0.8,10.5c14.6,6.9,63.1,39.1,77.9,49.3
					c1-7.2,1.6-12,5.4-18.3C149.8,296.6,115.9,273,90.2,259.2z"/>
				<path class="st3" d="M177,308.6c15.1,12.9,23.2,21.1,25.4,23.2c5.5-4.7,12.4-8.6,20.2-11.6c9.7-3.6,19.9-6,28.2-6.7
					c1.4-0.1,2.7-0.1,4-0.2c-11.2-6.8-24.6-15.4-38.9-25C199.1,291.2,185.6,298.7,177,308.6z"/>
				<path class="st3" d="M210.7,285.4c-21.3-14.3-65-49.3-77.5-61.3c-4.1-1.3-8.6-2-13.6-1.6c-17.9,1.5-32.5,11-40.6,21.9
					c22.6,9.2,74.6,41.3,95.4,59.9C182.3,295.5,197.3,289.6,210.7,285.4z"/>
				<path class="st3" d="M285.6,331.2l-0.1,0.2c0,0-5.3-3.1-8.1-4.7c-7.2-3-15.8-4.3-25.7-3.4c-6.9,0.6-16.6,2.8-25.4,6.1
					c-8.8,3.3-16.7,7.9-20.3,12.1c-0.1,0.1-0.3,0.3-0.4,0.4c-2,1.9-5.2,1.8-7.2-0.2c0,0-9-14.5-25.5-28.7
					c-3.1,5.8-6.4,15.9-6.5,22.4c17.9,14.3,37.7,29.1,48.5,39.1c0.1-9.7,2.3-16.4,6.4-21.5c6-7.5,18.5-12.2,26.1-13
					c10.9-1.1,20.4,0.4,27,4.3c6.5,3.9,10.6,10,11.2,16.5s-2.1,12.7-6.3,17.4c-4.2,4.7-10.1,8.2-16.8,8.7c-1.3,0.1-2.6-0.3-3.7-1.1
					l-10.4-8.3l0,0L235,366.6c2.1-2.4,4.5-5,8-6.3l12.8,10.4l7.2,5.7c3-0.7,6.2-2,8.6-4.6c2.7-3,4.2-6.9,3.9-10.2
					c-0.3-3.3-2-7-6.2-9.6c-4.2-2.5-10.3-4.2-19.6-3.4c-7.6,0.6-16,4-21.3,8.5c-5.2,4.5-8.3,10.5-7.6,18.9
					c0.7,7.8,6.4,14.9,15.3,19.9c8.9,4.9,20.8,7.3,32.4,5.6c21.2-3.2,34.2-21.6,32.1-42.9C299.5,347,294.2,337.5,285.6,331.2z"/>
			</g>
			<g>
				<path class="st4" d="M97.5,262.5c-0.3,0.8-3.6,9.5-3.8,10.2c-1,3.6-0.9,7.5-0.8,9.9c13.8,6.5,59.9,37.1,74,46.8
					c2.7-9.1,4.6-13.8,6-16.6C155.3,297.9,121.9,275.6,97.5,262.5z"/>
				<path class="st4" d="M180.2,308.5c14.3,12.2,25,25,27,27c5.2-4.5,13-10,20.4-12.8c9.2-3.5,14.4-5.2,22.2-5.8
					c1.3-0.1,8.4-0.5,9.7-0.6c-10.6-6.5-28.7-17.9-42.3-27C201.3,291.9,188.4,299,180.2,308.5z"/>
				<path class="st4" d="M214.4,289c-20.2-13.5-63.9-49.4-75.8-60.8c-3.9-1.3-8.1-1.9-12.9-1.5c-17,1.4-30.6,9.9-38.3,20.3
					c21.4,8.8,71.4,42.1,91.1,59.8C186.1,298.4,201.8,293,214.4,289z"/>
				<path class="st4" d="M283.3,329.9l-0.1,0.2c0,0-5-2.9-7.7-4.5c-6.9-2.8-15-4-24.3-3.3c-6.5,0.5-15.7,2.6-24.1,5.8
					c-8.3,3.1-15.8,7.5-19.2,11.4c-0.1,0.1-0.3,0.3-0.4,0.4c-1.9,1.8-5,1.7-6.8-0.1c0,0-10.1-10.1-25.8-23.6
					c-3,5.5-4.5,11.4-4.6,17.5c17,13.6,33.8,28.3,44.1,37.7c0.1-9.2,2.1-18.6,8.2-24c6.9-6,16-9.2,25.1-9.9
					c10.4-0.9,18.8,0.9,25,4.6c6.2,3.7,10,9.5,10.6,15.7s-2,12.1-6,16.5c-4,4.5-9.6,7.8-15.9,8.3c-1.3,0.1-2.5-0.3-3.5-1l-9.9-7.9
					l0,0L234.6,363c2-2.3,4.9-4.2,8.3-5.4l12.1,9.9l6.8,5.4c2.9-0.6,5.9-1.9,8.1-4.4c2.6-2.9,4-6.5,3.7-9.7s-2.1-6.2-6.1-8.6
					s-10.3-4-19.1-3.3c-7.2,0.6-14.5,3.3-19.5,7.6c-5,4.3-7.9,9.9-7.2,17.9c0.7,7.4,6.1,14.2,14.6,18.9c8.5,4.7,19.8,6.9,30.7,5.3
					c20.1-3.1,32.4-20.5,30.5-40.7C296.5,344.9,291.4,335.9,283.3,329.9z"/>
			</g>
			<g>
				<path d="M80.4,249.1c-0.9,1-1.4,2.3-1.2,3.7c0.2,1.7,1.4,3.1,3,3.7c22.5,8.7,70,38.7,92.5,58c-3.6,5.8-4.1,10.4-5.1,17.2
					c-13.9-9.5-59.5-39.8-73.2-46.3c-0.2-2.4-0.2-6.3,0.7-9.8c0.2-0.7,3.5-9.4,3.7-10.1c-2.8-1.4-5.7-3.2-8.6-4.4
					c-0.7,1.7-4.2,11.5-4.4,12.4c-2.1,7.4-0.7,15.4-0.7,15.8c0.3,1.4,1.2,2.7,2.7,3.4c15.5,7.1,32,17.4,48,28.7c0,0.1,0,0.1,0,0.2
					h0.2c44.1,31.3,83.8,70.2,84.3,70.8c0,0,0.1,0,0.1,0.1c3.1,3.3,6.8,6.2,11,8.5c10.3,5.7,23.5,8.3,36.6,6.3
					c24.9-3.8,40.5-26,38.1-50.2c-1.4-13.7-8.4-25-19.1-32.4l0.1-0.2c0,0-26.7-15-59-36.3c0,0-22.8-15.4-30.3-20.8l-7.6-5.5
					c-16.3-12.1-32.1-24.9-45.2-37.6c-0.5-0.5-1.1-0.9-1.8-1.1c-5.3-1.8-11.2-2.5-17.3-2C106.3,222.7,89.1,234.6,80.4,249.1z
					 M277,327.8c2.7,1.5,7.6,4.4,7.6,4.4l0.1-0.2c8.1,5.9,13.1,14.8,14.1,25.7c2,19.9-10.3,37.2-30.1,40.2
					c-10.8,1.7-22-0.6-30.4-5.2s-13.7-11.4-14.4-18.7c-0.7-7.9,2.2-13.5,7.1-17.7c4.9-4.2,12.1-6.9,19.3-7.5
					c8.7-0.7,15,0.9,18.9,3.2c4,2.4,5.7,5.4,6,8.5s-1.1,6.7-3.7,9.6c-2.2,2.5-5.2,3.7-8.1,4.4l-6.7-5.4l-12-9.8
					c-3.4,1.2-6.2,3-8.2,5.3l13.3,10.7l0,0l9.8,7.8c1,0.8,2.2,1.1,3.4,1c6.3-0.5,11.8-3.8,15.7-8.2c4-4.4,6.5-10.2,5.9-16.4
					c-0.6-6.1-4.3-11.9-10.5-15.5c-6.1-3.7-14.5-5.4-24.8-4.6c-9,0.8-18,3.9-24.8,9.8c-6.1,5.3-10.2,12.9-10.3,22
					c-10.2-9.4-24.6-22.2-41.4-35.7c0-6.1,1.6-11.9,4.5-17.3c15.5,13.3,25.5,23.3,25.5,23.3c1.8,1.8,4.8,1.9,6.7,0.1
					c0.1-0.1,0.2-0.2,0.4-0.4c3.4-3.9,10.8-8.2,19-11.3c8.2-3.1,17.3-5.2,23.8-5.7C262.1,323.8,270.2,325,277,327.8z M255.9,315.3
					c-1.2,0-2.5,0-3.8,0.2c-7.7,0.6-17.4,2.9-26.5,6.3c-7.3,2.8-13.8,6.4-19,10.9c-2-2-9.7-9.7-23.9-21.8c8.1-9.3,20.8-16.3,36.6-19
					C232.8,300.8,245.4,308.8,255.9,315.3z M141.7,231.5c11.7,11.3,52.8,44.1,72.7,57.5c-12.5,3.9-26.7,9.5-34.1,17.8
					c-19.5-17.5-68.1-48.1-89.3-56.8c7.7-10.2,21.1-18.6,37.9-20.1C133.6,229.6,137.8,230.2,141.7,231.5z"/>
			</g>
		</g>
	</g>
</g>
</svg>
