<?xml version="1.0" encoding="utf-8"?>
<!-- Generator: Adobe Illustrator 21.1.0, SVG Export Plug-In . SVG Version: 6.00 Build 0)  -->
<svg version="1.1" id="Layer_1" xmlns="http://www.w3.org/2000/svg" xmlns:xlink="http://www.w3.org/1999/xlink" x="0px" y="0px"
	 viewBox="0 0 386.7 415.7" style="enable-background:new 0 0 386.7 415.7;" xml:space="preserve">
<style type="text/css">
	.st0{stroke:#F9F9F9;stroke-width:2;stroke-miterlimit:10;}
	.st1{fill:#38A3F4;}
	.st2{fill:#F3F3F3;}
	.st3{stroke:#F9F9F9;stroke-miterlimit:10;}
	.st4{stroke:#FFFFFF;stroke-miterlimit:10;}
</style>
<g>
	<g>
		<g id="surface1_2_">
			<path class="st0" d="M60.3,5.6c-4.1,0-7.5,3.4-7.5,7.5v142.4h-45c-4.1,0-7.5,3.4-7.5,7.5v149.9c0,4.1,3.4,7.5,7.5,7.5h119.9
				c4.1,0,7.5-3.4,7.5-7.5v-15h149.9c4.1,0,7.5-3.4,7.5-7.5V13.1c0-4.1-3.4-7.5-7.5-7.5C285.1,5.6,60.3,5.6,60.3,5.6z M97.8,65.5
				h112.4v15H97.8V65.5z M225.2,65.5h22.5v15h-22.5V65.5z M97.8,95.5h97.4v15H97.8V95.5z M225.2,95.5h22.5v15h-22.5V95.5z
				 M97.8,125.5h112.4v15H97.8V125.5z M225.2,125.5h22.5v15h-22.5V125.5z M150.2,155.4h59.9v15h-59.9L150.2,155.4L150.2,155.4z
				 M225.2,155.4h22.5v15h-22.5V155.4z M15.4,170.4h104.9v134.9H15.4V170.4z M30.4,185.4v15h74.9v-15H30.4z M150.2,185.4h45v15h-45
				V185.4z M225.2,185.4h22.5v15h-22.5V185.4z M30.4,215.4v15h15v-15H30.4z M60.3,215.4v15h15v-15H60.3z M90.3,215.4v15h15v-15H90.3
				z M150.2,215.4h59.9v15h-59.9L150.2,215.4L150.2,215.4z M225.2,215.4h22.5v15h-22.5V215.4z M30.4,245.4v15h15v-15H30.4z
				 M60.3,245.4v15h15v-15H60.3z M90.3,245.4v15h15v-15H90.3z M30.4,275.3v15h15v-15H30.4z M60.3,275.3v15h15v-15H60.3z M90.3,275.3
				v15h15v-15H90.3z"/>
		</g>
	</g>
	<g>
		<g>
			<g>
				<path class="st1" d="M254.5,279.6c1.6,4.4,1.2,7.5,0.8,12.1c11-4.1,47-17.2,57.4-19.4c0.5-1.6,1.1-4.1,1-6.6
					c0-0.5-0.9-6.7-1-7.2C294.1,263.3,268.7,272.5,254.5,279.6z"/>
				<path class="st1" d="M312.8,258.5c0.9-0.2,1.7-0.5,2.6-0.7C314.6,258,313.7,258.2,312.8,258.5z"/>
				<path class="st1" d="M162.8,289.1c-4.5,12.9,1.2,26.1,14.3,31.1c7.1,2.8,15.1,3,21.6,1.2c6.5-1.8,11.2-5.4,12.8-10.1
					c1.7-5.1,0.6-9.2-2.1-12.8s-7.2-6.4-12-7.9c-5.9-1.8-10.4-1.7-13.5-0.7s-4.8,2.7-5.5,4.7s-0.3,4.6,1,6.9c1.1,2,3,3.3,4.8,4.1
					l5.4-2.5l9.7-4.6c2.1,1.3,3.8,3,4.8,4.8l-10.8,5.1l0,0l-7.9,3.7c-0.8,0.4-1.7,0.5-2.5,0.2c-4.2-1.3-7.5-4.3-9.5-7.8
					s-2.8-7.7-1.5-11.7c1.3-3.9,4.8-7.1,9.6-8.6c4.8-1.5,10.8-1.4,17.7,0.7c6,1.8,11.7,5.3,15.4,10.2c3.3,4.4,4.9,10.1,3.6,16.1
					c8.5-4.7,20.4-11,34-17.3c0.9-4,0.8-8.1-0.4-12.1c-12.7,6.4-21.1,11.5-21.1,11.5c-1.5,1-3.6,0.5-4.6-0.9
					c-0.1-0.1-0.1-0.2-0.2-0.3c-1.6-3-6-7-11.2-10.3s-11-6.1-15.4-7.4c-6.2-1.9-11.9-2.3-17-1.5c-2.1,0.6-5.9,1.8-5.9,1.8v-0.1
					C170,277.3,165.1,282.4,162.8,289.1z"/>
			</g>
			<g>
				<path class="st2" d="M252.7,279.6c1.4,4.1,1.1,7,0.7,11.3c10.3-3.9,44.1-16.1,53.8-18.2c0.5-1.5,1.1-3.9,1-6.2
					c0-0.5-0.8-6.3-0.9-6.8C289.8,264.3,266,272.9,252.7,279.6z"/>
				<path class="st2" d="M307.4,259.7c0.8-0.2,1.6-0.4,2.4-0.6C309,259.3,308.2,259.5,307.4,259.7z"/>
				<path class="st2" d="M166.8,289c-4.2,12.1,1.1,24.5,13.4,29.2c6.7,2.6,14.2,2.8,20.3,1.1c6.1-1.7,10.5-5.1,12-9.5
					c1.6-4.8,0.5-8.7-2-12c-2.6-3.3-6.8-6-11.3-7.4c-5.4-1.7-9.7-1.6-12.6-0.7s-4.5,2.5-5.1,4.4c-0.7,1.8-0.3,4.3,0.9,6.4
					c1,1.8,2.8,3,4.5,3.8l5.1-2.4l9.1-4.3c2,1.3,3.6,2.8,4.5,4.5l-10.1,4.8l0,0l-7.4,3.4c-0.8,0.3-1.6,0.3-2.4,0.1
					c-3.9-1.2-7-4-8.9-7.3s-2.7-7.3-1.4-11c1.2-3.7,4.5-6.7,9-8.1s10.1-1.3,16.6,0.7c5.7,1.7,11,5,14.5,9.6
					c3.1,4.1,4.7,9.4,3.4,15.1c7.9-4.4,19.1-10.3,31.9-16.2c0.8-3.8,0.7-7.6-0.4-11.4c-11.9,6-19.8,10.8-19.8,10.8
					c-1.5,0.8-3.4,0.5-4.4-0.9c-0.1-0.1-0.1-0.2-0.2-0.3c-1.6-2.9-5.8-6.6-10.6-9.7c-4.9-3.1-10.4-5.6-14.5-6.9
					c-5.8-1.8-11.2-2.2-16-1.4c-2,0.5-5.6,1.6-5.6,1.6v-0.1C173.3,277.4,168.7,282.2,166.8,289z"/>
			</g>
			<g>
				<path class="st3" d="M293.9,228.7c-3.8-1.2-7.7-1.6-11.4-1.2c-0.5,0-0.9,0.2-1.3,0.4c-10.3,6-22.4,11.7-34.6,16.9l-5.7,2.4
					c-5.6,2.2-22.5,8.5-22.5,8.5c-23.9,8.6-43.3,14.1-43.3,14.1v0.1c-8,3-14.2,9-17.1,17.3c-5.1,14.5,1.7,30.5,17.1,36.4
					c8.2,3.1,17,3.4,24.5,1.3c3-0.8,5.8-2.1,8.3-3.7h0.1c0.4-0.2,31.6-18.7,64.6-31.8h0.1v-0.1c12-4.7,24.1-8.7,35.1-10.9
					c1-0.2,1.8-0.8,2.2-1.7c0.1-0.3,2.1-5.1,1.9-9.9c0-0.6-0.8-7.2-1-8.3c-2.1,0.3-4.2,1.1-6.2,1.5c0.1,0.5,0.9,6.3,0.9,6.8
					c0.1,2.3-0.5,4.7-1,6.2c-9.7,2-43.5,14.3-53.8,18.2c0.4-4.3,0.8-7.2-0.7-11.3c17.3-8.8,52.2-20.6,68-22.8
					c1.2-0.1,2.1-0.8,2.5-1.8c0.3-0.8,0.3-1.6-0.2-2.4C317,242.7,307.6,232.9,293.9,228.7z M198,274.9c4.1,1.2,9.7,3.8,14.5,6.9
					c4.9,3.1,9,6.8,10.6,9.7c0.1,0.1,0.1,0.2,0.2,0.3c1,1.4,3,1.8,4.4,0.9c0,0,7.9-4.7,19.8-10.8c1.1,3.8,1.3,7.6,0.4,11.4
					c-12.8,6-24,11.9-31.9,16.2c1.3-5.7-0.3-11-3.4-15.1c-3.5-4.6-8.8-7.9-14.5-9.6c-6.5-2-12.1-2.1-16.6-0.7s-7.7,4.4-9,8.1
					c-1.3,3.8-0.5,7.7,1.4,11s5,6.1,8.9,7.3c0.8,0.3,1.7,0.2,2.4-0.1l7.4-3.4l0,0l10.1-4.8c-1-1.7-2.5-3.3-4.5-4.5l-9.1,4.3
					l-5.1,2.4c-1.7-0.7-3.4-2-4.5-3.8c-1.2-2.1-1.5-4.5-0.9-6.4s2.2-3.5,5.1-4.4s7.1-1,12.6,0.7c4.5,1.4,8.8,4.1,11.3,7.4
					c2.6,3.4,3.6,7.2,2,12c-1.5,4.4-5.9,7.8-12,9.5c-6.1,1.7-13.6,1.5-20.3-1.1c-12.3-4.7-17.6-17.2-13.4-29.2
					c2.3-6.6,6.8-11.4,12.9-13.9v0.1c0,0,3.7-1,5.6-1.6C187.2,273,192.6,273.4,198,274.9z M292.1,234.2c10.6,3.3,18,10.4,21.4,17.8
					c-14.9,2.4-50.7,14.5-65.8,22.5c-3.5-6.3-11.8-11.7-19.3-15.9c14.8-5.5,46-20,55.2-25.3C286.3,233.1,289,233.3,292.1,234.2z"/>
			</g>
		</g>
		<g>
			<g>
				<path class="st1" d="M291.5,304.5c3.8,6.3,4.4,11.1,5.4,18.3c14.8-10.2,63.3-42.4,77.9-49.3c0.2-2.6,0.2-6.7-0.8-10.5
					c-0.1-0.8-4-11-4.3-11.8C344,265,310.1,288.6,291.5,304.5z"/>
				<path class="st1" d="M244,280.3c-14.3,9.6-27.7,18.2-38.9,25c1.3,0.1,2.6,0.1,4,0.2c8.3,0.7,18.5,3.1,28.2,6.7
					c7.8,3,14.7,6.9,20.2,11.6c2.2-2.1,10.3-10.3,25.4-23.2C274.3,290.7,260.8,283.2,244,280.3z"/>
				<path class="st1" d="M285.5,296.3c20.8-18.6,72.8-50.7,95.4-59.9c-8.1-10.9-22.7-20.4-40.6-21.9c-5-0.4-9.5,0.3-13.6,1.6
					c-12.5,12-56.2,47-77.5,61.3C262.6,281.6,277.6,287.5,285.5,296.3z"/>
				<path class="st1" d="M159.3,350.6c-2.1,21.3,10.9,39.7,32.1,42.9c11.6,1.7,23.5-0.7,32.4-5.6c8.9-5,14.6-12.1,15.3-19.9
					c0.7-8.4-2.4-14.4-7.6-18.9c-5.3-4.5-13.7-7.9-21.3-8.5c-9.3-0.8-15.4,0.9-19.6,3.4c-4.2,2.6-5.9,6.3-6.2,9.6
					c-0.3,3.3,1.2,7.2,3.9,10.2c2.4,2.6,5.6,3.9,8.6,4.6l7.2-5.7l12.8-10.4c3.5,1.3,5.9,3.9,8,6.3l-13.4,10.9l0,0l-10.4,8.3
					c-1.1,0.8-2.4,1.2-3.7,1.1c-6.7-0.5-12.6-4-16.8-8.7c-4.2-4.7-6.9-10.9-6.3-17.4s4.7-12.6,11.2-16.5c6.6-3.9,16.1-5.4,27-4.3
					c7.6,0.8,20.1,5.5,26.1,13c4.1,5.1,6.3,11.8,6.4,21.5c10.8-10,30.6-24.8,48.5-39.1c-0.1-6.5-3.4-16.6-6.5-22.4
					c-16.5,14.2-25.5,28.7-25.5,28.7c-2,2-5.2,2.1-7.2,0.2c-0.1-0.1-0.3-0.3-0.4-0.4c-3.6-4.2-11.5-8.8-20.3-12.1
					c-8.8-3.3-18.5-5.5-25.4-6.1c-9.9-0.9-18.5,0.4-25.7,3.4c-2.8,1.6-8.1,4.7-8.1,4.7l-0.1-0.2C165.7,329.5,160.4,339,159.3,350.6z
					"/>
			</g>
			<g>
				<path class="st2" d="M287,304.8c1.4,2.8,3.3,7.5,6,16.6c14.1-9.7,60.2-40.3,74-46.8c0.1-2.4,0.2-6.3-0.8-9.9
					c-0.2-0.7-3.5-9.4-3.8-10.2C338,267.6,304.6,289.9,287,304.8z"/>
				<path class="st2" d="M242.7,281.3c-13.6,9.1-31.7,20.5-42.3,27c1.3,0.1,8.4,0.5,9.7,0.6c7.8,0.6,13,2.3,22.2,5.8
					c7.4,2.8,15.2,8.3,20.4,12.8c2-2,12.7-14.8,27-27C271.5,291,258.6,283.9,242.7,281.3z"/>
				<path class="st2" d="M281.4,298.8c19.7-17.7,69.7-51,91.1-59.8c-7.7-10.4-21.3-18.9-38.3-20.3c-4.8-0.4-9,0.2-12.9,1.5
					c-11.9,11.4-55.6,47.3-75.8,60.8C258.1,285,273.8,290.4,281.4,298.8z"/>
				<path class="st2" d="M162.4,347.9c-1.9,20.2,10.4,37.6,30.5,40.7c10.9,1.6,22.2-0.6,30.7-5.3c8.5-4.7,13.9-11.5,14.6-18.9
					c0.7-8-2.2-13.6-7.2-17.9c-5-4.3-12.3-7-19.5-7.6c-8.8-0.7-15.1,0.9-19.1,3.3s-5.8,5.4-6.1,8.6s1.1,6.8,3.7,9.7
					c2.2,2.5,5.2,3.8,8.1,4.4l6.8-5.4l12.1-9.9c3.4,1.2,6.3,3.1,8.3,5.4l-13.4,10.7l0,0l-9.9,7.9c-1,0.7-2.2,1.1-3.5,1
					c-6.3-0.5-11.9-3.8-15.9-8.3c-4-4.4-6.6-10.3-6-16.5s4.4-12,10.6-15.7c6.2-3.7,14.6-5.5,25-4.6c9.1,0.7,18.2,3.9,25.1,9.9
					c6.1,5.4,8.1,14.8,8.2,24c10.3-9.4,27.1-24.1,44.1-37.7c-0.1-6.1-1.6-12-4.6-17.5c-15.7,13.5-25.8,23.6-25.8,23.6
					c-1.8,1.8-4.9,1.9-6.8,0.1c-0.1-0.1-0.3-0.3-0.4-0.4c-3.4-3.9-10.9-8.3-19.2-11.4c-8.4-3.2-17.6-5.3-24.1-5.8
					c-9.3-0.7-17.4,0.5-24.3,3.3c-2.7,1.6-7.7,4.5-7.7,4.5l-0.1-0.2C168.5,327.9,163.4,336.9,162.4,347.9z"/>
			</g>
			<g>
				<path class="st4" d="M332,213.2c-6.1-0.5-12,0.2-17.3,2c-0.7,0.2-1.3,0.6-1.8,1.1c-13.1,12.7-28.9,25.5-45.2,37.6l-7.6,5.5
					c-7.5,5.4-30.3,20.8-30.3,20.8c-32.3,21.3-59,36.3-59,36.3l0.1,0.2c-10.7,7.4-17.7,18.7-19.1,32.4
					c-2.4,24.2,13.2,46.4,38.1,50.2c13.1,2,26.3-0.6,36.6-6.3c4.2-2.3,7.9-5.2,11-8.5c0-0.1,0.1-0.1,0.1-0.1
					c0.5-0.6,40.2-39.5,84.3-70.8h0.2c0-0.1,0-0.1,0-0.2c16-11.3,32.5-21.6,48-28.7c1.5-0.7,2.4-2,2.7-3.4c0-0.4,1.4-8.4-0.7-15.8
					c-0.2-0.9-3.7-10.7-4.4-12.4c-2.9,1.2-5.8,3-8.6,4.4c0.2,0.7,3.5,9.4,3.7,10.1c0.9,3.5,0.9,7.4,0.7,9.8
					c-13.7,6.5-59.3,36.8-73.2,46.3c-1-6.8-1.5-11.4-5.1-17.2c22.5-19.3,70-49.3,92.5-58c1.6-0.6,2.8-2,3-3.7
					c0.2-1.4-0.3-2.7-1.2-3.7C370.8,226.6,353.6,214.7,332,213.2z M207.2,316.2c6.5,0.5,15.6,2.6,23.8,5.7c8.2,3.1,15.6,7.4,19,11.3
					c0.2,0.2,0.3,0.3,0.4,0.4c1.9,1.8,4.9,1.7,6.7-0.1c0,0,10-10,25.5-23.3c2.9,5.4,4.5,11.2,4.5,17.3
					c-16.8,13.5-31.2,26.3-41.4,35.7c-0.1-9.1-4.2-16.7-10.3-22c-6.8-5.9-15.8-9-24.8-9.8c-10.3-0.8-18.7,0.9-24.8,4.6
					c-6.2,3.6-9.9,9.4-10.5,15.5c-0.6,6.2,1.9,12,5.9,16.4c3.9,4.4,9.4,7.7,15.7,8.2c1.2,0.1,2.4-0.2,3.4-1l9.8-7.8l0,0l13.3-10.7
					c-2-2.3-4.8-4.1-8.2-5.3l-12,9.8l-6.7,5.4c-2.9-0.7-5.9-1.9-8.1-4.4c-2.6-2.9-4-6.5-3.7-9.6s2-6.1,6-8.5
					c3.9-2.3,10.2-3.9,18.9-3.2c7.2,0.6,14.4,3.3,19.3,7.5c4.9,4.2,7.8,9.8,7.1,17.7c-0.7,7.3-6,14.1-14.4,18.7s-19.6,6.9-30.4,5.2
					c-19.8-3-32.1-20.3-30.1-40.2c1-10.9,6-19.8,14.1-25.7l0.1,0.2c0,0,4.9-2.9,7.6-4.4C189.7,317,197.8,315.8,207.2,316.2z"/>
			</g>
		</g>
	</g>
</g>
</svg>
