<?xml version="1.0" encoding="utf-8"?>
<!-- Generator: Adobe Illustrator 22.0.1, SVG Export Plug-In . SVG Version: 6.00 Build 0)  -->
<svg version="1.1" id="Layer_1" xmlns="http://www.w3.org/2000/svg" xmlns:xlink="http://www.w3.org/1999/xlink" x="0px" y="0px"
	 viewBox="0 0 500 500" style="enable-background:new 0 0 500 500;" xml:space="preserve">
<style type="text/css">
	.st0{display:none;fill:none;stroke:#000000;stroke-width:5;stroke-miterlimit:10;}
	.st1{fill:none;stroke:#FFFFFF;stroke-width:6;stroke-miterlimit:10;}
</style>
<path class="st0" d="M47.5,460.2c-3.1-14.2-6.2-28.5-9.3-42.7c-9.4-43.4-18.7-86.7-28.3-130.1c-1-4.5-0.4-7,3.6-9.7
	c16.5-10.9,32.9-22,49.1-33.4c3.5-2.5,6.9-5.8,9.3-9.4c14-21.1,27.7-42.4,41.6-63.6c11.8-18.1,28.5-26.2,50.3-25.4
	c-3.1,8.1-6.1,15.7-9.1,23.4c-7.1,18.1-14.4,36.1-21.2,54.3c-11.3,30,3.2,61.7,32.6,71.9c26.6,9.2,55.5-5.2,66.6-33.2
	c10.4-26.3,20.7-52.6,30.9-78.9c1.4-3.8,3.2-5.1,7.2-5.1c58.8,0.1,117.7,0.1,176.5,0.1c16.3,0,28,11.3,28.1,26.8
	c0,15.9-11.7,27.4-28,27.5c-5,0-9.9-0.1-14.9,0c-6.5,0.2-10.5,4.7-10.5,11.1c0,5.9,4.4,10.2,10.6,10.5c3.9,0.2,7.8,0.1,11.6,0.9
	c12.9,2.9,21.6,15.2,20.3,28.4c-1.4,13.9-12.3,24.6-25.7,24.9c-4.1,0.1-8.2,0-12.2,0c-10.6,0-15.3,3.5-15.2,11.3
	c0.1,7.1,4.8,10.4,14.9,10.4c9.5,0,17.4,3.4,22.8,11.5c6,9,6.5,18.6,1.7,28.2c-4.8,9.6-12.8,14.2-23.2,14.5
	c-6.2,0.2-12.4,0-18.6,0.1c-7,0.1-11.4,4.4-11.4,10.8c0,6.5,4.4,10.6,11.4,10.9c4.8,0.2,9.6,0,14.2,1c13.2,2.9,21.4,15.1,20.2,29
	c-1.2,12.8-11.8,23.8-24.7,24.1c-16.3,0.4-32.6,0.1-49.7,0.1c0-2.6,0-5.1,0-7.5c0-20.5-9.4-36.4-26.1-43.3
	c-18.4-7.5-34.3-2.7-48.3,11.5c-8.6-9.2-18.9-14.9-31.7-14.9c-12.8-0.1-23.2,5.5-32.1,15c-8.7-9.4-19.1-15-31.9-15
	c-12.7,0-23.2,5.6-31.9,15c-13.8-14.1-29.7-19-48.1-11.6c-17.9,7.2-24.6,20.2-26.6,50.5C77.6,460.2,62.9,460.2,47.5,460.2z
	 M487.3,84.4C435,59.3,382.6,34.2,330.3,9c-2.9-1.4-4.1-0.3-5.7,1.7c-7.5,9.7-15,19.2-22.5,28.8c-9.5,12.3-21.7,19.7-37.1,22.1
	c-33.5,5.1-56.6,23.9-69.3,55.9c-7.1,17.9-14,35.9-21.1,53.8c-7.7,19.8-15.6,39.5-23.2,59.3c-6.3,16.5-0.9,33.2,13.2,41.3
	c17.6,10.1,38.1,2.6,45.9-17.1c11.6-29.3,23-58.6,34.5-87.9c3.4-8.7,5.6-10.2,14.6-10.2c60.3,0,120.5,0,180.8,0.1
	c3.8,0,6-0.9,8.1-4.4c9.4-15.7,19.1-31.3,28.7-46.9c4-6.5,8.1-13.1,12.1-19.7C488.5,85.2,487.9,84.7,487.3,84.4z M112.1,455.8
	c0,3.6,0,7.2,0,10.8c0.2,12.4,9,21.6,21.1,21.7c11.7,0.2,21.1-9.2,21.3-21.7c0.1-7.2,0.1-14.5,0-21.7c-0.2-12.4-9.3-21.7-21.2-21.7
	c-11.9,0-21.1,9.3-21.3,21.7c-0.1,3.6,0,7.2,0,10.8C112,455.8,112,455.8,112.1,455.8z M174.2,463.8c0.2,12.4,9.4,21.7,21.3,21.6
	c11.9,0,21-9.3,21.2-21.8c0.1-7.2,0.1-14.5,0-21.7c-0.2-12.4-9.4-21.7-21.3-21.6c-11.9,0-21,9.4-21.2,21.8c-0.1,3.4,0,6.9,0,10.3
	C174.2,456.2,174.1,460,174.2,463.8z M240,464.1c0.3,12.1,9.3,21.4,20.9,21.5c11.9,0.2,21.3-9.1,21.6-21.3c0.2-7.4,0.1-14.8,0-22.2
	c-0.2-12.3-9.5-21.6-21.4-21.5c-11.6,0.1-20.8,9.3-21.1,21.3c-0.1,3.6,0,7.2,0,10.8C240,456.5,239.9,460.3,240,464.1z M349.5,440.7
	c-0.4-11.6-9.7-20.7-21.1-20.8c-11.4-0.1-21,8.9-21.4,20.4c-0.3,8.1-0.3,16.3,0,24.4c0.5,11.3,10,20.3,21,20.2
	c11.8-0.1,21.1-9.2,21.4-21c0.1-3.8,0-7.6,0-11.4C349.5,448.6,349.7,444.6,349.5,440.7z"/>
<path class="st1" d="M10.3,453.7c2.8-13.7,8.3-25.8,19.4-35.2c12.3-10.4,26.8-17.4,42-23.3c15.4-6,31.1-11.5,46.4-17.9
	c13-5.4,25.2-12.2,32.6-24c3.1-4.9,5.4-10.8,5.8-16.4c0.9-13.2,0.6-26.4,0.6-39.6c0-1.3-1.2-2.8-2.2-3.9c-2.9-2.9-6.7-5.3-9-8.6
	c-7.5-10.7-11.9-22.5-13.3-35.2c-0.2-1.9-0.6-3.8-0.9-5.6c-0.5-0.2-0.8-0.5-1.1-0.5c-10.8-1-12.4-2.3-14.9-12.4
	c-0.8-3.2-1.3-6.4-1.5-9.7c-0.3-4.4,1.3-8.1,6-10c3.5-1.4,4.1-3.4,2.9-6.5c-1.1-2.7-1.7-5.6-2.7-9.1c51.6,4.7,102.6,4.8,154.3,0
	c-1.5,4.6-2.8,8.7-4.1,12.7c0.2,0.4,0.3,0.8,0.6,0.9c4.2,2.6,9.4,4.4,9.4,10.2c0,7.6-0.7,15.3-6.3,21.2c-2.1,2.2-7,2.2-11,3.4
	c-1,5.1-1.4,11.1-3.4,16.5c-3.3,8.7-7.6,17.1-11.7,25.5c-1,2-2.6,4.4-4.7,5.2c-5.4,2.1-5.4,5.9-5.3,10.3c0.3,10.6,0.7,21.2,0.3,31.8
	c-0.5,14,7.3,23.8,18.2,32c12.8,9.8,28.3,15.1,43.6,20.7c17.9,6.5,35.9,12.7,52.1,22.5c16.4,9.9,27.8,22.9,32.1,40.8
	c0.3,1.3,0.5,2.5,0.7,4.1C260,453.7,135.4,453.7,10.3,453.7z M305,191.3c-5.6,0.6-9.4,2.4-9.5,8c-0.1,2.1,0.3,4.3,1,6.2
	c1.4,4,4,7.7,4.7,11.8c1.7,10.6-1,20.9-6.6,30.1c-2.2,3.7-6.8,6.1-10.2,9.3c-1.4,1.4-3,3.1-3.5,4.9c-2.8,11.9-5.6,24.3-14.2,33.3
	c-8.2,8.6-7.5,17.5-7.5,27.1c0,3.1,0.6,6.2,0.3,9.3c-0.8,8.2,3.5,14,10.1,18.8c2.6,1.9,5.3,3.9,8.3,5.2
	c14.7,6.2,29.5,12.5,44.4,18.3c19.5,7.6,38.9,15.5,55.2,28.4c2.1,1.7,5.5,2.9,8.3,2.9c33,0.2,66,0.1,99,0.1c1.7,0,3.4,0,5.4,0
	c-0.2-1.1-0.2-1.7-0.4-2.3c-0.2-1-0.5-1.9-0.8-2.8c-5.2-17.5-18.6-28.7-35-36.7c-14.2-6.9-29.2-12.2-43.5-18.9
	c-9.7-4.5-19.2-9.6-27.9-15.6c-7.8-5.4-14-12.8-14.4-22.4c-0.6-12-0.5-24.1-0.5-36.2c0-1.2,0.9-2.6,1.8-3.6c2.9-3.1,6.6-5.8,8.8-9.3
	c6.2-10.2,10.1-21.1,10.2-33.5c8.9,1.4,12.4-2.8,14.1-9.8c1.9-7.7,1.5-14.1-8.3-16.5c2.4-7,4.5-13.5,6.7-20
	c-25.9,1.1-51.2,2.2-76.6,3.2c0,2,0,4.2,0,7.1C317.7,188.9,311.4,190.6,305,191.3z M229,77.7c0,14,0,28.1,0,42.1
	c0,4.2-1.4,7.7-5.5,9.9c-7.5,3.9-15.6-1.2-15.6-9.8c-0.1-18.3,0-36.5,0-54.8c0-12.5,0-12.5-13.7-12.5c-7.7,0-7.6,0-7.6,7.4
	c0,20.1,0.1,40.1,0,60.2c0,6.5-4.1,10.6-10.3,10.8c-6.4,0.1-10.7-4.1-10.8-10.8c-0.1-4.1,0-8.2,0-12.2c0-10.9,0-21.8,0-33.1
	c-14.7,2.4-26.5,8.4-35.1,19.1c-12,14.9-17,32-17.9,50.3c-0.4,7.6-3.4,11.8-10.5,14.2c-8.7,2.9-9.6,4.4-9.1,14
	c69.6,10.6,139.3,10,209,0c0-9.6-1-11.3-7-13.2c-9.8-3.1-12.3-6.4-12.8-16.2c-0.9-15.9-5.2-30.9-14.3-44.5
	c-8.7-13.1-21.5-20.7-38.4-23.7C229.1,76.1,229,76.9,229,77.7z M302.3,138.1c0.1,1.2,1.2,2.9,2.3,3.2c8.1,2.7,12.9,8.3,15.9,15.4
	c1.2,2.8,2.8,3.6,5.9,3.5c23.8-1.1,47.6-1.7,71.3-3.2c10.5-0.7,20.8-2.9,31.6-4.5c-1.6-4,0.6-8.4-5-10c-10.5-2.9-12.6-6-13.2-16.2
	c-0.9-15.2-5.4-29.5-14.5-42.4c-7-10-16.9-16-29.8-18.7c0,2.4,0,4.2,0,6c0,13,0,26.1,0,39.1c0,4.3-1.5,8.2-6,9.4
	c-3.2,0.9-7.3,0.6-10.4-0.6c-4.1-1.6-4.9-5.6-4.8-9.6c0.1-18.1,0-36.2,0-54.3c0-12.6,0-12.6-13.5-12.6c-7.8,0-7.7,0-7.7,7.3
	c0,20.1,0.1,40.1,0,60.2c0,6.8-4.3,11-10.7,10.9c-6.2-0.1-10.3-4.2-10.4-10.7c-0.1-3.4,0-6.9,0-10.3c0-11.5,0-23,0-36.5
	c-9.2,5-17.1,9.3-25.7,14C293.6,96.3,300.6,116.3,302.3,138.1z"/>
</svg>
