<?xml version="1.0" encoding="utf-8"?>
<!-- Generator: Adobe Illustrator 21.1.0, SVG Export Plug-In . SVG Version: 6.00 Build 0)  -->
<svg version="1.1" xmlns="http://www.w3.org/2000/svg" xmlns:xlink="http://www.w3.org/1999/xlink" x="0px" y="0px"
	 viewBox="0 0 512 299.3" style="enable-background:new 0 0 512 299.3;" xml:space="preserve">
<style type="text/css">
	.st0{display:none;opacity:0.9;fill:#333333;}
	.st1{display:none;}
	.st2{display:inline;fill:#222222;}
	.st3{display:none;fill:#222222;}
	.st4{display:none;fill:none;stroke:#FFFFFF;stroke-width:6;stroke-miterlimit:10;}
	.st5{display:inline;}
	.st6{fill:#EAEAEA;}
	.st7{fill:#E54E23;}
	.st8{fill:#F3F3F3;}
	.st9{fill:#999999;}
	.st10{display:inline;fill:#222222;stroke:#FFFFFF;stroke-miterlimit:10;}
	.st11{fill:#555555;}
	.st12{fill:#FFFFFF;stroke:#FFFFFF;stroke-miterlimit:10;}
</style>
<g id="Layer_1">
	<rect x="83.9" y="56.7" class="st0" width="344" height="201"/>
	<g id="BLACK_BG" class="st1">
		<rect y="-38.1" class="st2" width="512" height="374.4"/>
	</g>
	<rect x="-7.7" y="-47.1" class="st3" width="526.9" height="389"/>
	<g>
		<g>
			<path class="st4" d="M507.6,95.6c0-0.3,0-0.4,0-0.4L256.9-33.2L5.3,95.7v106.5c0,0,241.6,123.8,251.4,128.8
				c0.2-0.1,0.3-0.1,0.3-0.1l250.7-128.4C507.6,202.4,507.6,103,507.6,95.6z"/>
			<g class="st1">
				
					<image style="display:inline;overflow:visible;opacity:0.75;" width="397" height="71" xlink:href="B0E1D63A07567E7B.png"  transform="matrix(1 0 0 1 65.5606 147.9138)">
				</image>
				<g class="st5">
					<g>
						<path class="st6" d="M125.4,155.6l-5.9,50.8H103c-1.5-7.8-2.8-16.7-4-26.6c-0.5,4.3-1.8,13.1-3.7,26.6H79l-5.9-50.8h12.8
							l1.4,17.7l1.3,17.1c0.5-8.9,1.7-20.5,3.6-34.8H106c0.2,1.5,0.7,7.1,1.4,16.7l1.5,19.3c0.8-12.3,2-24.3,3.7-36.1H125.4z"/>
						<path class="st6" d="M149.1,161.3l6.7,45.1h-12l-0.6-8.1H139l-0.7,8.1h-12.1l6-45.1H149.1z M142.9,190.3
							c-0.6-5.1-1.2-11.4-1.8-18.9c-1.2,8.6-1.9,15-2.3,18.9H142.9z"/>
						<path class="st6" d="M183.7,174.9h-10.9v-3.3c0-1.6-0.1-2.6-0.4-3c-0.3-0.4-0.7-0.6-1.4-0.6c-0.7,0-1.2,0.3-1.6,0.9
							c-0.4,0.6-0.5,1.4-0.5,2.6c0,1.5,0.2,2.6,0.6,3.4c0.4,0.8,1.5,1.7,3.3,2.8c5.2,3.1,8.5,5.6,9.9,7.6c1.4,2,2,5.2,2,9.6
							c0,3.2-0.4,5.6-1.1,7.1c-0.8,1.5-2.2,2.8-4.4,3.8c-2.2,1-4.7,1.5-7.5,1.5c-3.1,0-5.8-0.6-8-1.8c-2.2-1.2-3.7-2.7-4.4-4.5
							c-0.7-1.8-1-4.4-1-7.8v-3h10.9v5.5c0,1.7,0.2,2.8,0.5,3.3s0.8,0.7,1.6,0.7c0.8,0,1.4-0.3,1.7-0.9c0.4-0.6,0.6-1.5,0.6-2.7
							c0-2.7-0.4-4.4-1.1-5.2c-0.7-0.8-2.6-2.2-5.5-4.1c-2.9-1.9-4.8-3.3-5.8-4.2c-0.9-0.9-1.7-2.1-2.4-3.6
							c-0.6-1.5-0.9-3.5-0.9-5.9c0-3.5,0.4-6,1.3-7.6c0.9-1.6,2.3-2.8,4.3-3.7c2-0.9,4.3-1.4,7.1-1.4c3,0,5.6,0.5,7.8,1.5
							c2.1,1,3.6,2.2,4.3,3.7c0.7,1.5,1,4,1,7.6V174.9z"/>
						<path class="st6" d="M209.6,161.3l6.7,45.1h-12l-0.6-8.1h-4.2l-0.7,8.1h-12.1l6-45.1H209.6z M203.4,190.3
							c-0.6-5.1-1.2-11.4-1.8-18.9c-1.2,8.6-1.9,15-2.3,18.9H203.4z"/>
						<path class="st6" d="M239.8,161.3v9h-7v36.1h-11.7v-36.1h-6.9v-9H239.8z"/>
						<path class="st6" d="M270.9,180.9h-11.7v-7.8c0-2.3-0.1-3.7-0.4-4.3c-0.3-0.6-0.8-0.8-1.7-0.8c-1,0-1.6,0.3-1.8,1
							c-0.3,0.7-0.4,2.2-0.4,4.5v21c0,2.2,0.1,3.6,0.4,4.3c0.3,0.7,0.8,1,1.8,1c0.9,0,1.4-0.3,1.7-1c0.3-0.7,0.4-2.2,0.4-4.7v-5.7
							h11.7v1.8c0,4.7-0.3,8-1,9.9c-0.7,2-2.1,3.7-4.4,5.1c-2.3,1.5-5,2.2-8.3,2.2c-3.4,0-6.3-0.6-8.5-1.9c-2.2-1.2-3.7-3-4.4-5.2
							c-0.7-2.2-1.1-5.5-1.1-9.9v-13.2c0-3.3,0.1-5.7,0.3-7.3c0.2-1.6,0.9-3.2,2-4.7c1.1-1.5,2.6-2.7,4.6-3.6c2-0.9,4.2-1.3,6.8-1.3
							c3.5,0,6.3,0.7,8.6,2c2.2,1.3,3.7,3,4.4,5s1.1,5.1,1.1,9.3V180.9z"/>
						<path class="st6" d="M303.1,161.3v45.1h-11.7v-18.9h-3.5v18.9h-11.7v-45.1h11.7v16.1h3.5v-16.1H303.1z"/>
						<path class="st6" d="M369.1,155.6l-5.9,50.8h-16.5c-1.5-7.8-2.8-16.7-4-26.6c-0.5,4.3-1.8,13.1-3.7,26.6h-16.4l-5.9-50.8h12.8
							l1.4,17.7l1.3,17.1c0.5-8.9,1.7-20.5,3.6-34.8h13.7c0.2,1.5,0.7,7.1,1.4,16.7l1.5,19.3c0.8-12.3,2-24.3,3.7-36.1H369.1z"/>
						<path class="st6" d="M372.5,161.3h19.6v9h-7.8v8.6h7.3v8.6h-7.3v9.9h8.6v9h-20.3V161.3z"/>
						<path class="st6" d="M422.1,174.9h-10.9v-3.3c0-1.6-0.1-2.6-0.4-3c-0.3-0.4-0.7-0.6-1.4-0.6c-0.7,0-1.2,0.3-1.6,0.9
							c-0.4,0.6-0.5,1.4-0.5,2.6c0,1.5,0.2,2.6,0.6,3.4c0.4,0.8,1.5,1.7,3.3,2.8c5.2,3.1,8.5,5.6,9.9,7.6c1.4,2,2,5.2,2,9.6
							c0,3.2-0.4,5.6-1.1,7.1c-0.8,1.5-2.2,2.8-4.4,3.8c-2.2,1-4.7,1.5-7.5,1.5c-3.1,0-5.8-0.6-8-1.8c-2.2-1.2-3.7-2.7-4.4-4.5
							c-0.7-1.8-1-4.4-1-7.8v-3h10.9v5.5c0,1.7,0.2,2.8,0.5,3.3s0.9,0.7,1.6,0.7c0.8,0,1.4-0.3,1.7-0.9c0.4-0.6,0.6-1.5,0.6-2.7
							c0-2.7-0.4-4.4-1.1-5.2c-0.7-0.8-2.6-2.2-5.5-4.1c-2.9-1.9-4.8-3.3-5.8-4.2c-0.9-0.9-1.7-2.1-2.4-3.6
							c-0.6-1.5-0.9-3.5-0.9-5.9c0-3.5,0.4-6,1.3-7.6c0.9-1.6,2.3-2.8,4.3-3.7c2-0.9,4.3-1.4,7.1-1.4c3,0,5.6,0.5,7.8,1.5
							c2.1,1,3.6,2.2,4.3,3.7c0.7,1.5,1,4,1,7.6V174.9z"/>
						<path class="st6" d="M451.4,161.3v9h-7v36.1h-11.7v-36.1h-6.9v-9H451.4z"/>
					</g>
				</g>
			</g>
			<g>
				<path class="st7" d="M79,177.5L71.4,243H50.2c-1.9-10.1-3.7-21.5-5.1-34.3c-0.7,5.5-2.3,16.9-4.7,34.3H19.2l-7.6-65.4h16.5
					l1.8,22.8l1.7,22.1c0.6-11.4,2.2-26.4,4.7-44.9H54c0.2,1.9,0.9,9.1,1.9,21.6l1.9,24.9c1-15.8,2.6-31.3,4.7-46.5H79z"/>
				<path class="st7" d="M109.6,184.8l8.6,58.2h-15.5l-0.8-10.5h-5.4L95.6,243H80l7.7-58.2H109.6z M101.6,222.2
					c-0.8-6.6-1.5-14.7-2.3-24.4c-1.5,11.1-2.5,19.3-2.9,24.4H101.6z"/>
				<path class="st7" d="M154.1,202.4h-14v-4.3c0-2-0.2-3.3-0.5-3.8c-0.4-0.6-1-0.8-1.8-0.8c-0.9,0-1.6,0.4-2.1,1.1
					c-0.5,0.7-0.7,1.9-0.7,3.4c0,1.9,0.3,3.4,0.8,4.4c0.5,1,1.9,2.2,4.3,3.6c6.7,4,11,7.3,12.7,9.8c1.7,2.6,2.6,6.7,2.6,12.4
					c0,4.1-0.5,7.2-1.5,9.2c-1,2-2.8,3.6-5.6,4.9c-2.8,1.3-6,2-9.7,2c-4,0-7.5-0.8-10.4-2.3c-2.9-1.5-4.7-3.5-5.6-5.9
					c-0.9-2.4-1.3-5.7-1.3-10.1v-3.8h14v7.1c0,2.2,0.2,3.6,0.6,4.2c0.4,0.6,1.1,0.9,2.1,0.9c1,0,1.8-0.4,2.2-1.2
					c0.5-0.8,0.7-2,0.7-3.5c0-3.4-0.5-5.7-1.4-6.7c-1-1.1-3.3-2.8-7.1-5.3c-3.8-2.5-6.2-4.3-7.5-5.4c-1.2-1.1-2.2-2.7-3-4.7
					c-0.8-2-1.2-4.5-1.2-7.6c0-4.5,0.6-7.7,1.7-9.8c1.1-2.1,3-3.7,5.5-4.8c2.5-1.2,5.6-1.7,9.2-1.7c3.9,0,7.3,0.6,10,1.9
					c2.8,1.3,4.6,2.9,5.5,4.8c0.9,1.9,1.3,5.2,1.3,9.8V202.4z"/>
				<path class="st7" d="M187.6,184.8l8.6,58.2h-15.5l-0.8-10.5h-5.4l-0.9,10.5H158l7.7-58.2H187.6z M179.5,222.2
					c-0.8-6.6-1.5-14.7-2.3-24.4c-1.5,11.1-2.5,19.3-2.9,24.4H179.5z"/>
				<path class="st7" d="M226.5,184.8v11.6h-9V243h-15.1v-46.5h-8.9v-11.6H226.5z"/>
				<path class="st7" d="M266.5,210.1h-15.1V200c0-2.9-0.2-4.8-0.5-5.5c-0.3-0.7-1-1.1-2.1-1.1c-1.2,0-2,0.4-2.4,1.3
					c-0.3,0.9-0.5,2.8-0.5,5.7v27c0,2.8,0.2,4.7,0.5,5.5c0.3,0.9,1.1,1.3,2.3,1.3c1.1,0,1.9-0.4,2.2-1.3c0.3-0.9,0.5-2.9,0.5-6.1
					v-7.3h15.1v2.3c0,6-0.4,10.3-1.3,12.8c-0.9,2.5-2.7,4.7-5.6,6.6c-2.9,1.9-6.5,2.8-10.8,2.8c-4.4,0-8.1-0.8-11-2.4
					c-2.9-1.6-4.8-3.8-5.7-6.7c-0.9-2.8-1.4-7.1-1.4-12.8v-17c0-4.2,0.1-7.3,0.4-9.4c0.3-2.1,1.1-4.1,2.6-6.1
					c1.4-1.9,3.4-3.5,5.9-4.6c2.5-1.1,5.4-1.7,8.7-1.7c4.5,0,8.1,0.9,11,2.6c2.9,1.7,4.8,3.9,5.7,6.4c0.9,2.6,1.4,6.6,1.4,12V210.1z
					"/>
				<path class="st7" d="M308,184.8V243h-15.1v-24.4h-4.5V243h-15.1v-58.2h15.1v20.8h4.5v-20.8H308z"/>
				<path class="st7" d="M393.1,177.5l-7.6,65.4h-21.2c-1.9-10.1-3.7-21.5-5.1-34.3c-0.7,5.5-2.3,16.9-4.7,34.3h-21.1l-7.6-65.4
					h16.5l1.8,22.8l1.7,22.1c0.6-11.4,2.2-26.4,4.7-44.9h17.7c0.2,1.9,0.9,9.1,1.9,21.6l1.9,24.9c1-15.8,2.5-31.3,4.7-46.5H393.1z"
					/>
				<path class="st7" d="M397.5,184.8h25.2v11.6h-10.1v11h9.4v11.1h-9.4v12.8h11.1V243h-26.2V184.8z"/>
				<path class="st7" d="M461.4,202.4h-14v-4.3c0-2-0.2-3.3-0.5-3.8c-0.4-0.6-1-0.8-1.8-0.8c-0.9,0-1.6,0.4-2.1,1.1
					c-0.5,0.7-0.7,1.9-0.7,3.4c0,1.9,0.3,3.4,0.8,4.4c0.5,1,1.9,2.2,4.3,3.6c6.7,4,11,7.3,12.7,9.8c1.7,2.6,2.6,6.7,2.6,12.4
					c0,4.1-0.5,7.2-1.5,9.2c-1,2-2.8,3.6-5.6,4.9c-2.8,1.3-6,2-9.7,2c-4,0-7.5-0.8-10.4-2.3c-2.9-1.5-4.7-3.5-5.6-5.9
					c-0.9-2.4-1.3-5.7-1.3-10.1v-3.8h14v7.1c0,2.2,0.2,3.6,0.6,4.2c0.4,0.6,1.1,0.9,2.1,0.9s1.8-0.4,2.2-1.2c0.5-0.8,0.7-2,0.7-3.5
					c0-3.4-0.5-5.7-1.4-6.7c-1-1.1-3.3-2.8-7.1-5.3c-3.8-2.5-6.3-4.3-7.5-5.4c-1.2-1.1-2.2-2.7-3-4.7c-0.8-2-1.2-4.5-1.2-7.6
					c0-4.5,0.6-7.7,1.7-9.8c1.1-2.1,3-3.7,5.5-4.8c2.5-1.2,5.6-1.7,9.2-1.7c3.9,0,7.3,0.6,10,1.9c2.8,1.3,4.6,2.9,5.5,4.8
					c0.9,1.9,1.3,5.2,1.3,9.8V202.4z"/>
				<path class="st7" d="M499.2,184.8v11.6h-9V243h-15.1v-46.5h-8.9v-11.6H499.2z"/>
			</g>
			<g>
				<g>
					<path class="st8" d="M179.2,274.5h-6v-4c0-1.2-0.1-1.9-0.2-2.2c-0.1-0.3-0.4-0.4-0.9-0.4c-0.5,0-0.8,0.2-0.9,0.5
						c-0.1,0.4-0.2,1.1-0.2,2.3v10.8c0,1.1,0.1,1.9,0.2,2.2c0.1,0.3,0.4,0.5,0.9,0.5c0.4,0,0.7-0.2,0.9-0.5c0.1-0.3,0.2-1.2,0.2-2.4
						v-2.9h6v0.9c0,2.4-0.2,4.1-0.5,5.1c-0.3,1-1.1,1.9-2.2,2.6c-1.2,0.8-2.6,1.1-4.3,1.1c-1.8,0-3.2-0.3-4.4-1
						c-1.1-0.6-1.9-1.5-2.3-2.7c-0.4-1.1-0.6-2.8-0.6-5.1v-6.8c0-1.7,0.1-2.9,0.2-3.8s0.5-1.6,1-2.4c0.6-0.8,1.4-1.4,2.4-1.8
						c1-0.4,2.2-0.7,3.5-0.7c1.8,0,3.2,0.3,4.4,1c1.2,0.7,1.9,1.5,2.3,2.6c0.4,1,0.5,2.6,0.5,4.8V274.5z"/>
					<path class="st8" d="M197.2,278c0,2.3-0.1,4-0.2,4.9c-0.1,1-0.5,1.9-1,2.7c-0.6,0.8-1.4,1.4-2.3,1.8c-1,0.4-2.1,0.6-3.4,0.6
						c-1.2,0-2.4-0.2-3.3-0.6c-1-0.4-1.8-1-2.4-1.8c-0.6-0.8-1-1.7-1.1-2.6s-0.2-2.6-0.2-5v-4c0-2.3,0.1-4,0.2-4.9
						c0.1-1,0.5-1.9,1-2.7c0.6-0.8,1.4-1.4,2.3-1.8c1-0.4,2.1-0.6,3.4-0.6c1.2,0,2.4,0.2,3.3,0.6c1,0.4,1.8,1,2.4,1.8
						c0.6,0.8,1,1.7,1.1,2.6c0.1,1,0.2,2.6,0.2,5V278z M191.2,270.3c0-1.1-0.1-1.8-0.2-2.1c-0.1-0.3-0.4-0.5-0.7-0.5
						c-0.3,0-0.6,0.1-0.7,0.4c-0.2,0.2-0.3,1-0.3,2.2v10.8c0,1.3,0.1,2.2,0.2,2.5s0.4,0.5,0.8,0.5c0.4,0,0.7-0.2,0.8-0.5
						c0.1-0.4,0.2-1.2,0.2-2.6V270.3z"/>
					<path class="st8" d="M215,264.4v23.2h-5.3l-3.1-10.5v10.5h-5v-23.2h5l3.4,10.4v-10.4H215z"/>
					<path class="st8" d="M231.7,264.4v4.6h-3.6v18.5h-6V269h-3.6v-4.6H231.7z"/>
					<path class="st8" d="M235.1,264.4h4.3c2.8,0,4.8,0.1,5.8,0.3c1,0.2,1.8,0.8,2.5,1.7c0.6,0.9,1,2.3,1,4.3c0,1.8-0.2,3-0.7,3.6
						c-0.4,0.6-1.3,1-2.6,1.1c1.2,0.3,2,0.7,2.4,1.2c0.4,0.5,0.7,1,0.8,1.4c0.1,0.4,0.2,1.6,0.2,3.4v6.1H243v-7.7
						c0-1.2-0.1-2-0.3-2.3c-0.2-0.3-0.7-0.4-1.5-0.4v10.5h-6V264.4z M241.1,268.4v5.2c0.7,0,1.2-0.1,1.4-0.3
						c0.3-0.2,0.4-0.8,0.4-1.8v-1.3c0-0.7-0.1-1.2-0.4-1.4C242.3,268.5,241.8,268.4,241.1,268.4z"/>
					<path class="st8" d="M263.4,264.4l3.4,23.2h-6.2l-0.3-4.2h-2.2l-0.4,4.2h-6.2l3.1-23.2H263.4z M260.2,279.3
						c-0.3-2.6-0.6-5.9-0.9-9.7c-0.6,4.4-1,7.7-1.2,9.7H260.2z"/>
					<path class="st8" d="M284,274.5h-6v-4c0-1.2-0.1-1.9-0.2-2.2c-0.1-0.3-0.4-0.4-0.9-0.4c-0.5,0-0.8,0.2-0.9,0.5
						c-0.1,0.4-0.2,1.1-0.2,2.3v10.8c0,1.1,0.1,1.9,0.2,2.2c0.1,0.3,0.4,0.5,0.9,0.5c0.4,0,0.7-0.2,0.9-0.5c0.1-0.3,0.2-1.2,0.2-2.4
						v-2.9h6v0.9c0,2.4-0.2,4.1-0.5,5.1c-0.3,1-1.1,1.9-2.2,2.6c-1.2,0.8-2.6,1.1-4.3,1.1c-1.8,0-3.2-0.3-4.4-1
						c-1.1-0.6-1.9-1.5-2.3-2.7c-0.4-1.1-0.6-2.8-0.6-5.1v-6.8c0-1.7,0.1-2.9,0.2-3.8c0.1-0.8,0.5-1.6,1-2.4
						c0.6-0.8,1.4-1.4,2.4-1.8c1-0.4,2.2-0.7,3.5-0.7c1.8,0,3.2,0.3,4.4,1c1.2,0.7,1.9,1.5,2.3,2.6c0.4,1,0.5,2.6,0.5,4.8V274.5z"/>
					<path class="st8" d="M300.4,264.4v4.6h-3.6v18.5h-6V269h-3.6v-4.6H300.4z"/>
					<path class="st8" d="M309.9,264.4v23.2h-6v-23.2H309.9z"/>
					<path class="st8" d="M327.8,264.4v23.2h-5.3l-3.1-10.5v10.5h-5v-23.2h5l3.4,10.4v-10.4H327.8z"/>
					<path class="st8" d="M346.1,272.9h-6v-2.1c0-1.3-0.1-2.2-0.2-2.5c-0.1-0.3-0.4-0.5-0.8-0.5c-0.4,0-0.6,0.1-0.8,0.4
						c-0.1,0.3-0.2,1-0.2,2.2v11.1c0,1,0.1,1.7,0.2,2.1c0.1,0.3,0.4,0.5,0.8,0.5c0.4,0,0.7-0.2,0.9-0.6c0.2-0.4,0.2-1.1,0.2-2.2
						v-2.7h-1.2v-3.5h7.1v12.4h-3.8l-0.6-1.7c-0.4,0.7-0.9,1.3-1.6,1.6c-0.6,0.4-1.4,0.5-2.2,0.5c-1,0-2-0.2-2.8-0.7
						c-0.9-0.5-1.6-1.1-2-1.8c-0.5-0.7-0.7-1.5-0.9-2.3c-0.1-0.8-0.2-2-0.2-3.6v-6.9c0-2.2,0.1-3.8,0.4-4.8c0.2-1,0.9-1.9,2.1-2.8
						c1.1-0.8,2.6-1.3,4.4-1.3c1.8,0,3.2,0.4,4.4,1.1c1.2,0.7,1.9,1.6,2.3,2.6c0.4,1,0.5,2.4,0.5,4.3V272.9z"/>
				</g>
				<polygon class="st8" points="149.4,279.5 78.4,277.4 149.1,275.3 154.3,277.4 				"/>
				<polygon class="st8" points="363.6,279.5 434.6,277.4 363.9,275.3 358.7,277.4 				"/>
			</g>
		</g>
		<g>
			<path class="st9" d="M156.1,78.7c0,4.2-2,15.2-3.4,20.9l-4.3,3.4c0,0,3.1-20.4,3.8-26.6c0.9-8.2-1.4-18.7-2.9-23.2
				C149.2,53.3,156.2,67.6,156.1,78.7z M170.1,75.4l0.4,3.4c0.9,7.8,2.4,23.8,1,31.8c-2.5,13.7-9.4,26.9-9.4,26.9l3.5-0.2
				c0,0,7-12.8,9.6-25.8C177.3,100.4,170.1,75.4,170.1,75.4z M258.4,100.2c-6.7-8.1-21.9-27.5-27.3-35.1l-7.2-3.7
				c0.6,0.9,21.3,30.4,29.7,39.9c8.1,9.1,32.7,33.5,32.7,33.5l5.9,0.1C292.2,134.9,266.2,109.5,258.4,100.2z M252.5,47.2
				c-0.8-5.2-6.3-18.4-6.3-18.4s-3.6-6.9-3.9-9.1l-4.4-12.9c0,0,1.3,12,1.5,13.6c0.3,2.2,2.4,8,2.4,8s5.5,13.2,6.3,18.4
				c0.7,4.9,0.5,19.4,0.4,24.3l4.4,2.2C252.9,73.2,253.4,53.1,252.5,47.2z M247.2,18.9c0.3,0.6,47.5,53.8,47.5,53.8l2.4-1.8
				L247.2,18.9z M325.3,73.5c-6.1-9-10.2-18.7-10.2-18.7s2,12.7,8,20.5c5.8,7.6,17.5,16.7,17.5,16.7S331.6,82.9,325.3,73.5z
				 M331.5,94.5l41,48.8l5.1,0.5L331.5,94.5z"/>
			<g>
				<g>
					<path class="st8" d="M12.7,172.6c3.6,0,8.1-2.1,11.6-3c4.1-1.1,8.2-2.1,12.3-3.2c7.5-1.9,15.1-3.9,22.6-5.8
						c21.3-4.2,42.6-9.3,64.1-12.1c48.7-6.2,97.8-8.8,146.9-7.9c48.9,0.9,97,6.1,145.3,13.7c20.6,3.3,77.3,14.8,85.1,17.1
						c0,0-39-5.8-47.1-6.9c-48.5-6.8-97-11.3-146-12.6c-9.4-0.2-18.7-0.5-28.1-0.5c-49-0.4-98.1,1.5-146.9,5.8
						C92.3,160.8,52.3,165.9,12.7,172.6z"/>
				</g>
				<path class="st8" d="M169.6,110.4c-2.5,13.7-9.6,27.1-9.6,27.1l-8.7,1.2c0,0-29.7,4.5-40.5,6.4c-11.5,2-50.1,10.8-50.1,10.8
					s38.7-38.3,48.7-50.3c10.3-12.3,38-52.7,38-52.7s0.8,1.9,1.6,5.2c1.1,4.4,2.2,11.4,1.5,19.6c-0.5,6.2-3.8,25.3-3.8,25.3
					s1.4-1.1,3.3-2.7c2.8-2.4,6.5-5.7,8.1-7.7c2.8-3.7,10-17.5,10-17.5s0.4,2.4,0.8,6C169.9,89,171.1,102.5,169.6,110.4z"/>
				<path class="st8" d="M283.8,134.7H223c0,0-16.4-27.6-23.1-36.9c-8.7-12-38.3-48.4-38.3-48.4l5.2,2.1l24.9,9.9c0,0,0.4-0.3,1-0.7
					c19.7-13.9,32.6-34.2,45-54.4c-0.7,1.4,0.3,5.6,0.4,7.3c0.1,2.4,0.2,4.7,0.5,7.1c0.3,2.2,2.2,7.9,2.2,7.9s5.1,13,5.9,18.2
					c0.8,4.8,0.9,19.3,1,24.3c0,1.1,0,1.7,0,1.7L225.9,61l-5.7-3c0.6,0.9,21.1,30.3,29.1,40C257.1,107.3,283.8,134.7,283.8,134.7z"
					/>
				<path class="st8" d="M370.9,143.2l-26-3.1c0,0-42-37.8-54.3-52.9c-12.3-15.3-43.1-67.2-44.1-68.9L261.7,36l33.1,38.8l2.5-2.3
					l16.6-15c0,0,0.5,2,1.4,4.9c1.4,4.3,3.9,10.6,7.4,15c6,7.4,15.9,15.9,19,18.5c0.6,0.5,1,0.8,1,0.8l-8.1-2.1l-6-1.6l42,49.7
					L370.9,143.2z"/>
				<polygon class="st8" points="341.8,84 396.3,146.6 436.7,153.5 418.2,141.6 				"/>
			</g>
		</g>
	</g>
</g>
<g id="favicon" class="st1">
	<rect x="-47.2" y="-155.1" class="st10" width="607" height="607.5"/>
	<g>
		<g class="st5">
			
				<image style="overflow:visible;opacity:0.75;" width="552" height="338" xlink:href="B0E1D63A07567E7E.png"  transform="matrix(1 0 0 1 12.8691 -99.8464)">
			</image>
			<g>
				<g>
					<path class="st6" d="M37.5,74.4c-0.1,9.7-4.7,35.3-7.9,48.6l-10,8c0,0,7.1-47.4,8.7-61.9c2.2-19-3.3-43.5-6.8-53.8
						C21.6,15.3,37.8,48.7,37.5,74.4z"/>
					<path class="st6" d="M81.9,150.6c-5.8,30.2-22.2,60-22.2,60l-8.1,0.4c0,0,16-30.8,21.8-62.6c3.4-18.4-0.2-55.7-2.3-73.8
						l-0.9-7.9C70.2,66.7,86.8,124.9,81.9,150.6z"/>
					<path class="st6" d="M353.9,205l-13.6-0.2c0,0-57.2-56.8-76-77.9c-19.5-21.9-67.6-90.5-69.1-92.6l16.8,8.5
						c12.4,17.6,47.8,62.7,63.3,81.5C293.4,145.9,353.9,205,353.9,205z"/>
					<path class="st6" d="M262.4,61.6l-10.3-5.1c0.2-11.5,0.7-45.2-1-56.5c-1.8-12.1-14.7-42.8-14.7-42.8s-4.9-13.5-5.5-18.5
						c-0.5-3.8-3.6-31.6-3.6-31.6l10.2,30c0.7,5.1,9.2,21.2,9.2,21.2s12.9,30.7,14.7,42.8C263.6,14.9,262.4,61.6,262.4,61.6z"/>
					<path class="st6" d="M365.2,56.2l-5.6,4.3c0,0-109.6-123.7-110.4-125L365.2,56.2z"/>
					<path class="st6" d="M466.3,105.4c0,0-27-21.4-40.6-38.9c-14-18.2-18.7-47.6-18.7-47.6s9.7,22.6,23.8,43.5
						C445.5,84.2,466.3,105.4,466.3,105.4z"/>
					<polygon class="st6" points="552.4,225.6 540.5,224.5 445.3,111.1 					"/>
				</g>
			</g>
		</g>
		<g class="st5">
			<g>
				<path class="st11" d="M-295.8,292.6c8.3,0,18.8-4.8,26.9-6.9c9.5-2.4,19-4.9,28.6-7.3c17.5-4.5,35-9,52.5-13.5
					c49.4-9.8,98.9-21.7,148.9-28.1c113.1-14.4,227.3-20.5,341.3-18.3c113.6,2.2,225.5,14.1,337.6,31.8
					c47.9,7.6,179.7,34.3,197.8,39.7c0,0-90.6-13.4-109.4-16.1c-112.8-15.9-225.5-26.4-339.4-29.2c-21.8-0.5-43.5-1.1-65.3-1.1
					c-114-1-228,3.5-341.5,13.4C-110.8,265.2-203.6,277-295.8,292.6z"/>
			</g>
			<path class="st11" d="M68.9,148.1c-5.8,31.8-22.2,63-22.2,63l-20.2,2.7c0,0-69.1,10.5-94.1,14.9c-26.7,4.7-116.4,25.2-116.4,25.2
				s89.9-89,113.2-116.8c24-28.6,88.4-122.6,88.4-122.6s1.8,4.5,3.7,12.1c2.5,10.3,5.2,26.6,3.6,45.5c-1.2,14.5-8.8,58.9-8.8,58.9
				s3.3-2.7,7.6-6.4c6.5-5.5,15.2-13.3,18.7-17.9c6.5-8.6,23.1-40.6,23.1-40.6s0.8,5.5,1.8,14C69.5,98.3,72.3,129.7,68.9,148.1z"/>
			<path class="st11" d="M334.3,204.6H193.1c0,0-38.2-64.1-53.7-85.6c-20.1-28-89-112.4-89-112.4l12,4.8l57.8,22.9
				c0,0,0.9-0.6,2.4-1.7C168.5,0.2,198.5-46.9,227.2-94c-1.7,3.3,0.8,13.1,1,17c0.3,5.5,0.4,11,1.2,16.4c0.7,5,5.2,18.3,5.2,18.3
				s11.8,30.3,13.7,42.4c1.7,11.2,2.2,45,2.3,56.4c0,2.4,0,3.9,0,3.9l-50.9-27.2l-13.2-7c1.5,2.1,49,70.4,67.7,93
				C272.2,140.9,334.3,204.6,334.3,204.6z"/>
			<path class="st11" d="M536.8,224.2l-60.4-7.3c0,0-97.7-87.8-126.2-123.1C321.5,58.4,250-62.4,247.8-66.2L283-24.8l76.8,90.3
				l5.9-5.3l38.6-34.8c0,0,1.1,4.7,3.3,11.4c3.4,10.1,9.1,24.7,17.3,34.8c14,17.2,37,36.9,44.1,42.9c1.4,1.2,2.2,1.9,2.2,1.9
				l-18.8-5l-14-3.7L536,223.4L536.8,224.2z"/>
			<polygon class="st11" points="469,86.6 595.7,232.2 689.7,248.3 646.7,220.6 			"/>
		</g>
	</g>
	<g class="st5">
		<g>
			<path class="st12" d="M576.6-160.3l-35.5,306.5h-99.5c-9.1-47.1-17.2-100.7-24.1-160.7c-3.2,25.8-10.6,79.3-22.2,160.7h-98.9
				l-35.7-306.5h77.4l8.4,106.9L354.6,50c2.9-53.5,10.3-123.6,22-210.3h82.8c1.1,9,4,42.7,8.7,101.1l8.8,116.6
				c4.5-74.2,11.9-146.8,22.2-217.7H576.6z"/>
		</g>
	</g>
	<g class="st5">
		<g>
			<path class="st12" d="M290.5-35.1L250.6,309H138.9c-10.2-52.9-19.3-113-27.1-180.5c-3.6,28.9-11.9,89.1-25,180.5H-24.2
				L-64.3-35.1h86.9l9.5,120.1L41.3,201C44.6,140.9,52.8,62.2,66-35.1h92.9c1.2,10.1,4.5,47.9,9.8,113.5l9.9,130.9
				c5.1-83.3,13.4-164.8,25-244.4H290.5z"/>
		</g>
	</g>
	<g class="st5">
		<g>
			<path class="st12" d="M487.4,294.2h-74.9v-50.1c0-14.6-0.8-23.6-2.4-27.3c-1.6-3.6-5.1-5.4-10.6-5.4c-6.2,0-10.1,2.2-11.7,6.6
				c-1.7,4.4-2.5,13.9-2.5,28.5v133.8c0,14,0.8,23.1,2.5,27.4c1.7,4.3,5.4,6.4,11.2,6.4c5.6,0,9.2-2.1,10.9-6.4
				c1.7-4.3,2.6-14.3,2.6-30.2v-36.2h74.9v11.2c0,29.8-2.1,51-6.3,63.5c-4.2,12.5-13.5,23.4-27.9,32.8
				c-14.4,9.4-32.2,14.1-53.3,14.1c-22,0-40-4-54.3-11.9c-14.2-7.9-23.7-19-28.3-33c-4.6-14.1-6.9-35.2-6.9-63.4v-84.2
				c0-20.8,0.7-36.3,2.1-46.7c1.4-10.4,5.7-20.4,12.7-30c7.1-9.6,16.8-17.2,29.4-22.7c12.5-5.5,26.9-8.3,43.2-8.3
				c22.1,0,40.3,4.3,54.6,12.8c14.4,8.5,23.8,19.2,28.3,31.9c4.5,12.7,6.8,32.6,6.8,59.4V294.2z"/>
		</g>
	</g>
</g>
</svg>
