<?xml version="1.0" encoding="utf-8"?>
<!-- Generator: Adobe Illustrator 21.1.0, SVG Export Plug-In . SVG Version: 6.00 Build 0)  -->
<svg version="1.1" id="Layer_1" xmlns="http://www.w3.org/2000/svg" xmlns:xlink="http://www.w3.org/1999/xlink" x="0px" y="0px" height="60" width="60"
	 viewBox="0 0 60 60" style="enable-background:new 0 0 60 60;" xml:space="preserve">
<style type="text/css">
	.st0{fill:#E54E23;}
</style>
<path class="st0" d="M28.6,40.1c0,0,0,0.1,0,0.2v0.2c0,0.1,0,0.2-0.1,0.2c0,0-0.1,0-0.2,0V40C28.5,40,28.6,40,28.6,40.1z M13.8,32.4
	c-0.2,1.2-0.3,2-0.3,2.6h0.6C14,34.3,13.9,33.5,13.8,32.4z M30.5,41.3h0.3c0-0.3-0.1-0.7-0.1-1.2C30.6,40.7,30.5,41.1,30.5,41.3z
	 M22.2,39.9C22.2,39.9,22.2,40,22.2,39.9c-0.1,0.1-0.1,0.2-0.1,0.3v1.3c0,0.2,0,0.3,0,0.3c0,0,0,0.1,0.1,0.1c0.1,0,0.1,0,0.1-0.1
	c0,0,0-0.2,0-0.3v-1.3C22.3,40.1,22.3,40,22.2,39.9C22.3,40,22.3,39.9,22.2,39.9z M22.1,32.4c-0.2,1.2-0.3,2-0.3,2.6h0.6
	C22.3,34.3,22.2,33.5,22.1,32.4z M59.4,30.1c0,16.3-13.2,29.5-29.5,29.5S0.4,46.4,0.4,30.1S13.6,0.6,29.9,0.6S59.4,13.9,59.4,30.1z
	 M39.6,20.3l5.8,6.7l4.3,0.7l-2-1.3L39.6,20.3z M29.5,13.3c0.1,0.2,3.4,5.7,4.7,7.3c1.3,1.6,5.8,5.6,5.8,5.6l2.8,0.3l0,0l-4.5-5.3
	l0.6,0.2l0.9,0.2c0,0,0,0-0.1-0.1c-0.3-0.3-1.4-1.2-2-2c-0.4-0.5-0.6-1.1-0.8-1.6c-0.1-0.3-0.2-0.5-0.2-0.5l-1.8,1.6l-0.3,0.2
	l-3.5-4.1L29.5,13.3z M20.5,16.6c0,0,3.1,3.9,4.1,5.1c0.7,1,2.5,3.9,2.5,3.9h6.5c0,0-2.8-2.9-3.7-3.9c-0.9-1-3-4.2-3.1-4.3l0.6,0.3
	l2.3,1.2c0,0,0-0.1,0-0.2c0-0.5,0-2.1-0.1-2.6c-0.1-0.6-0.6-1.9-0.6-1.9s-0.2-0.6-0.2-0.8c0-0.2,0-0.5-0.1-0.8c0-0.2-0.1-0.6,0-0.8
	c-1.3,2.2-2.7,4.3-4.8,5.8c-0.1,0-0.1,0.1-0.1,0.1l-2.6-1L20.5,16.6z M9.7,28c0,0,4.1-0.9,5.3-1.2c1.1-0.2,4.3-0.7,4.3-0.7l0.9-0.1
	c0,0,0.7-1.4,1-2.9c0.2-0.8,0-2.3-0.1-3.1c0-0.4-0.1-0.6-0.1-0.6s-0.8,1.5-1.1,1.9c-0.2,0.2-0.6,0.6-0.9,0.8
	c-0.2,0.2-0.3,0.3-0.3,0.3s0.3-2,0.4-2.7c0.1-0.9,0-1.6-0.2-2.1C19.1,17.2,19,17,19,17s-2.9,4.3-4,5.6C13.9,23.9,9.7,28,9.7,28z
	 M5,29.7c-0.1,0-0.3,0-0.4,0.1C4.8,29.8,4.9,29.7,5,29.7c4.1-0.7,8.2-1.2,12.3-1.6c5.2-0.5,10.4-0.7,15.6-0.6c1,0,2,0,3,0
	c5.2,0.1,10.4,0.6,15.5,1.3c0.9,0.1,5,0.7,5,0.7c-0.8-0.2-6.9-1.5-9-1.8C42.3,27,37.2,26.5,32,26.4c-5.2-0.1-10.4,0.2-15.6,0.8
	c-2.3,0.3-4.6,0.8-6.8,1.3c-0.8,0.2-1.6,0.4-2.4,0.6c-0.4,0.1-0.9,0.2-1.3,0.3C5.6,29.5,5.3,29.6,5,29.7z M47.2,33.5v-1.2h1.1v-1.2
	h-2.7v6.2h2.8V36h-1.2v-1.4h1v-1.2H47.2z M20.9,31.1l-0.8,6.2h1.7l0.1-1.1h0.6l0.1,1.1h1.6l-0.9-6.2H20.9z M14.9,31.1h-2.3l-0.8,6.2
	h1.7l0.1-1.1h0.6l0.1,1.1h1.6L14.9,31.1z M8.1,33.6c0.2,1.4,0.3,2.6,0.5,3.6h2.3l0.8-7H9.9c-0.2,1.6-0.4,3.3-0.5,4.9l-0.2-2.6
	c-0.1-1.3-0.2-2.1-0.2-2.3H7.1c-0.3,2-0.4,3.6-0.5,4.8l-0.2-2.3l-0.2-2.4H4.5l0.8,7h2.2C7.8,35.4,8,34.2,8.1,33.6z M17.8,41.1
	l-0.6-0.3l-8.7,0.3l8.7,0.3L17.8,41.1z M19.1,37.2c0.3-0.1,0.5-0.3,0.6-0.5c0.1-0.2,0.2-0.5,0.2-1c0-0.6-0.1-1-0.3-1.3
	c-0.2-0.3-0.6-0.6-1.4-1c-0.2-0.1-0.4-0.3-0.5-0.4c-0.1-0.1-0.1-0.3-0.1-0.5c0-0.2,0-0.3,0.1-0.4c0-0.1,0.1-0.1,0.2-0.1
	c0.1,0,0.2,0,0.2,0.1c0,0.1,0.1,0.2,0.1,0.4v0.5h1.5v-0.2c0-0.5,0-0.8-0.1-1c-0.1-0.2-0.3-0.4-0.6-0.5c-0.3-0.1-0.6-0.2-1.1-0.2
	c-0.4,0-0.7,0.1-1,0.2c-0.3,0.1-0.5,0.3-0.6,0.5c-0.1,0.2-0.2,0.6-0.2,1c0,0.3,0,0.6,0.1,0.8c0.1,0.2,0.2,0.4,0.3,0.5
	c0.1,0.1,0.4,0.3,0.8,0.6c0.4,0.3,0.7,0.4,0.8,0.6c0.1,0.1,0.1,0.4,0.1,0.7c0,0.2,0,0.3-0.1,0.4c-0.1,0.1-0.1,0.1-0.2,0.1
	c-0.1,0-0.2,0-0.2-0.1c0-0.1-0.1-0.2-0.1-0.4V35h-1.5v0.4c0,0.5,0,0.8,0.1,1.1c0.1,0.3,0.3,0.5,0.6,0.6c0.3,0.2,0.7,0.2,1.1,0.2
	C18.4,37.4,18.8,37.3,19.1,37.2z M20.9,40.5c0-0.3,0-0.5-0.1-0.6c0-0.1-0.1-0.2-0.3-0.3c-0.1-0.1-0.3-0.1-0.5-0.1
	c-0.2,0-0.3,0-0.4,0.1c-0.1,0.1-0.2,0.1-0.3,0.2c-0.1,0.1-0.1,0.2-0.1,0.3c0,0.1,0,0.3,0,0.5v0.8c0,0.3,0,0.5,0.1,0.6
	c0,0.1,0.1,0.2,0.3,0.3c0.1,0.1,0.3,0.1,0.5,0.1c0.2,0,0.4,0,0.5-0.1c0.1-0.1,0.2-0.2,0.3-0.3c0-0.1,0.1-0.3,0.1-0.6v-0.1h-0.7v0.4
	c0,0.2,0,0.3,0,0.3S20,41.9,20,41.9c-0.1,0-0.1,0-0.1-0.1c0,0,0-0.1,0-0.3v-1.3c0-0.1,0-0.2,0-0.3c0,0,0.1-0.1,0.1-0.1
	c0.1,0,0.1,0,0.1,0.1c0,0,0,0.1,0,0.3v0.5h0.7V40.5z M23.1,40.7c0-0.3,0-0.5,0-0.6s-0.1-0.2-0.1-0.3c-0.1-0.1-0.2-0.2-0.3-0.2
	c-0.1,0-0.3-0.1-0.4-0.1c-0.2,0-0.3,0-0.4,0.1c-0.1,0.1-0.2,0.1-0.3,0.2c-0.1,0.1-0.1,0.2-0.1,0.3c0,0.1,0,0.3,0,0.6v0.5
	c0,0.3,0,0.5,0,0.6c0,0.1,0.1,0.2,0.1,0.3c0.1,0.1,0.2,0.2,0.3,0.2c0.1,0,0.3,0.1,0.4,0.1c0.2,0,0.3,0,0.4-0.1
	c0.1-0.1,0.2-0.1,0.3-0.2c0.1-0.1,0.1-0.2,0.1-0.3c0-0.1,0-0.3,0-0.6V40.7z M25.2,39.5h-0.6v1.3l-0.4-1.3h-0.6v2.8h0.6v-1.3l0.4,1.3
	h0.6V39.5z M27.3,39.5h-1.6v0.6h0.4v2.3h0.7v-2.3h0.4V39.5z M27.4,31.1h-3.5v1.2h1v4.9h1.6v-4.9h1V31.1z M28.9,40.9
	c0.2,0,0.3-0.1,0.3-0.1c0.1-0.1,0.1-0.2,0.1-0.4c0-0.2,0-0.4-0.1-0.5c-0.1-0.1-0.2-0.2-0.3-0.2c-0.1,0-0.4,0-0.7,0h-0.5v2.8h0.7
	v-1.3c0.1,0,0.2,0,0.2,0.1c0,0,0,0.1,0,0.3v0.9h0.7v-0.7c0-0.2,0-0.4,0-0.4c0-0.1,0-0.1-0.1-0.2C29.2,41,29.1,40.9,28.9,40.9z
	 M31.6,42.4l-0.4-2.8h-1.1l-0.4,2.8h0.8l0-0.5h0.3l0,0.5H31.6z M31.6,33.2c0-0.6,0-1-0.1-1.3c-0.1-0.3-0.3-0.5-0.6-0.7
	c-0.3-0.2-0.7-0.3-1.2-0.3c-0.3,0-0.7,0.1-0.9,0.2c-0.3,0.1-0.5,0.3-0.6,0.5c-0.2,0.2-0.2,0.4-0.3,0.6c0,0.2,0,0.6,0,1V35
	c0,0.6,0,1.1,0.1,1.4c0.1,0.3,0.3,0.5,0.6,0.7c0.3,0.2,0.7,0.3,1.2,0.3c0.5,0,0.8-0.1,1.1-0.3c0.3-0.2,0.5-0.4,0.6-0.7
	c0.1-0.3,0.1-0.7,0.1-1.4v-0.2H30v0.8c0,0.3,0,0.6-0.1,0.6c0,0.1-0.1,0.1-0.2,0.1c-0.1,0-0.2,0-0.2-0.1c0-0.1-0.1-0.3-0.1-0.6v-2.9
	c0-0.3,0-0.5,0.1-0.6c0-0.1,0.1-0.1,0.3-0.1c0.1,0,0.2,0,0.2,0.1c0,0.1,0.1,0.3,0.1,0.6v1.1h1.6V33.2z M33.7,40.5
	c0-0.3,0-0.5-0.1-0.6c0-0.1-0.1-0.2-0.3-0.3c-0.1-0.1-0.3-0.1-0.5-0.1c-0.2,0-0.3,0-0.4,0.1c-0.1,0.1-0.2,0.1-0.3,0.2
	C32,39.9,32,40,32,40.1c0,0.1,0,0.3,0,0.5v0.8c0,0.3,0,0.5,0.1,0.6c0,0.1,0.1,0.2,0.3,0.3s0.3,0.1,0.5,0.1c0.2,0,0.4,0,0.5-0.1
	c0.1-0.1,0.2-0.2,0.3-0.3c0-0.1,0.1-0.3,0.1-0.6v-0.1H33v0.4c0,0.2,0,0.3,0,0.3c0,0-0.1,0.1-0.1,0.1c-0.1,0-0.1,0-0.1-0.1
	s0-0.1,0-0.3v-1.3c0-0.1,0-0.2,0-0.3c0,0,0.1-0.1,0.1-0.1c0.1,0,0.1,0,0.1,0.1c0,0,0,0.1,0,0.3v0.5h0.7V40.5z M35.7,39.5h-1.6v0.6
	h0.4v2.3h0.7v-2.3h0.4V39.5z M36,31.1h-1.6v2.2h-0.5v-2.2h-1.6v6.2h1.6v-2.6h0.5v2.6H36V31.1z M36.9,39.5h-0.7v2.8h0.7V39.5z
	 M39.1,39.5h-0.6v1.3L38,39.5h-0.6v2.8H38v-1.3l0.4,1.3h0.6V39.5z M41.3,40.4c0-0.2,0-0.4-0.1-0.5c0-0.1-0.1-0.2-0.3-0.3
	c-0.1-0.1-0.3-0.1-0.5-0.1c-0.2,0-0.4,0.1-0.5,0.2c-0.1,0.1-0.2,0.2-0.3,0.3c0,0.1,0,0.3,0,0.6v0.8c0,0.2,0,0.3,0,0.4s0,0.2,0.1,0.3
	c0.1,0.1,0.1,0.2,0.2,0.2s0.2,0.1,0.3,0.1c0.1,0,0.2,0,0.3-0.1c0.1,0,0.1-0.1,0.2-0.2l0.1,0.2h0.5v-1.5h-0.9v0.4h0.1v0.3
	c0,0.1,0,0.2,0,0.3c0,0-0.1,0.1-0.1,0.1c0,0-0.1,0-0.1-0.1c0,0,0-0.1,0-0.3v-1.4c0-0.1,0-0.2,0-0.3c0,0,0-0.1,0.1-0.1
	c0.1,0,0.1,0,0.1,0.1c0,0,0,0.1,0,0.3v0.3h0.7V40.4z M42,37.2h2.3l0.8-7h-1.8c-0.2,1.6-0.4,3.3-0.5,4.9l-0.2-2.6
	c-0.1-1.3-0.2-2.1-0.2-2.3h-1.9c-0.3,2-0.4,3.6-0.5,4.8l-0.2-2.3l-0.2-2.4h-1.8l0.8,7H41c0.3-1.8,0.4-3.1,0.5-3.6
	C41.6,35,41.8,36.2,42,37.2z M52.1,41.1l-8.7-0.3l-0.6,0.3l0.6,0.3L52.1,41.1z M52.5,35.7c0-0.6-0.1-1-0.3-1.3
	c-0.2-0.3-0.6-0.6-1.4-1c-0.2-0.1-0.4-0.3-0.5-0.4c-0.1-0.1-0.1-0.3-0.1-0.5c0-0.2,0-0.3,0.1-0.4c0-0.1,0.1-0.1,0.2-0.1
	c0.1,0,0.2,0,0.2,0.1c0,0.1,0.1,0.2,0.1,0.4v0.5h1.5v-0.2c0-0.5,0-0.8-0.1-1c-0.1-0.2-0.3-0.4-0.6-0.5c-0.3-0.1-0.6-0.2-1.1-0.2
	c-0.4,0-0.7,0.1-1,0.2c-0.3,0.1-0.5,0.3-0.6,0.5c-0.1,0.2-0.2,0.6-0.2,1c0,0.3,0,0.6,0.1,0.8c0.1,0.2,0.2,0.4,0.3,0.5
	c0.1,0.1,0.4,0.3,0.8,0.6c0.4,0.3,0.7,0.4,0.8,0.6c0.1,0.1,0.1,0.4,0.1,0.7c0,0.2,0,0.3-0.1,0.4c-0.1,0.1-0.1,0.1-0.2,0.1
	c-0.1,0-0.2,0-0.2-0.1c0-0.1-0.1-0.2-0.1-0.4V35h-1.5v0.4c0,0.5,0,0.8,0.1,1.1c0.1,0.3,0.3,0.5,0.6,0.6c0.3,0.2,0.7,0.2,1.1,0.2
	c0.4,0,0.7-0.1,1-0.2c0.3-0.1,0.5-0.3,0.6-0.5C52.4,36.4,52.5,36.1,52.5,35.7z M56.4,31.1h-3.5v1.2h1v4.9h1.6v-4.9h1V31.1z"/>
</svg>
